<svg xmlns="http://www.w3.org/2000/svg" xmlns:xlink="http://www.w3.org/1999/xlink" width="674" zoomAndPan="magnify" viewBox="0 0 505.5 181.5" height="242" preserveAspectRatio="xMidYMid meet" version="1.0"><defs><filter x="0%" y="0%" width="100%" height="100%" id="912c269e4d"><feColorMatrix values="0 0 0 0 1 0 0 0 0 1 0 0 0 0 1 0 0 0 1 0" color-interpolation-filters="sRGB"/></filter><g/><mask id="7c040ac886"><g filter="url(#912c269e4d)"><rect x="-50.55" width="606.6" fill="#000000" y="-18.15" height="217.8" fill-opacity="0.7882"/></g></mask><clipPath id="632c6f07d4"><path d="M 0.28125 0.617188 L 495.214844 0.617188 L 495.214844 164.980469 L 0.28125 164.980469 Z M 0.28125 0.617188 " clip-rule="nonzero"/></clipPath><clipPath id="eee86707e0"><path d="M 8.515625 0.617188 L 486.984375 0.617188 C 491.53125 0.617188 495.21875 4.304688 495.21875 8.851562 L 495.21875 156.757812 C 495.21875 161.304688 491.53125 164.992188 486.984375 164.992188 L 8.515625 164.992188 C 3.96875 164.992188 0.28125 161.304688 0.28125 156.757812 L 0.28125 8.851562 C 0.28125 4.304688 3.96875 0.617188 8.515625 0.617188 " clip-rule="nonzero"/></clipPath><linearGradient x1="0" gradientTransform="matrix(0.849283, 0, 0, 0.849283, 0.280043, 0.616886)" y1="0" x2="582.76563" gradientUnits="userSpaceOnUse" y2="0" id="036110bc4b"><stop stop-opacity="1" stop-color="rgb(0%, 28.999329%, 67.799377%)" offset="0"/><stop stop-opacity="1" stop-color="rgb(0.309753%, 29.051208%, 67.886353%)" offset="0.00390625"/><stop stop-opacity="1" stop-color="rgb(0.621033%, 29.104614%, 67.974854%)" offset="0.0078125"/><stop stop-opacity="1" stop-color="rgb(0.932312%, 29.156494%, 68.061829%)" offset="0.0117188"/><stop stop-opacity="1" stop-color="rgb(1.243591%, 29.208374%, 68.148804%)" offset="0.015625"/><stop stop-opacity="1" stop-color="rgb(1.553345%, 29.260254%, 68.235779%)" offset="0.0195312"/><stop stop-opacity="1" stop-color="rgb(1.864624%, 29.31366%, 68.32428%)" offset="0.0234375"/><stop stop-opacity="1" stop-color="rgb(2.175903%, 29.36554%, 68.411255%)" offset="0.0273438"/><stop stop-opacity="1" stop-color="rgb(2.487183%, 29.417419%, 68.499756%)" offset="0.03125"/><stop stop-opacity="1" stop-color="rgb(2.796936%, 29.469299%, 68.586731%)" offset="0.0351562"/><stop stop-opacity="1" stop-color="rgb(3.108215%, 29.522705%, 68.673706%)" offset="0.0390625"/><stop stop-opacity="1" stop-color="rgb(3.419495%, 29.574585%, 68.760681%)" offset="0.0429688"/><stop stop-opacity="1" stop-color="rgb(3.730774%, 29.627991%, 68.849182%)" offset="0.046875"/><stop stop-opacity="1" stop-color="rgb(4.040527%, 29.679871%, 68.936157%)" offset="0.0507812"/><stop stop-opacity="1" stop-color="rgb(4.351807%, 29.73175%, 69.024658%)" offset="0.0546875"/><stop stop-opacity="1" stop-color="rgb(4.663086%, 29.78363%, 69.111633%)" offset="0.0585938"/><stop stop-opacity="1" stop-color="rgb(4.974365%, 29.837036%, 69.198608%)" offset="0.0625"/><stop stop-opacity="1" stop-color="rgb(5.284119%, 29.888916%, 69.285583%)" offset="0.0664062"/><stop stop-opacity="1" stop-color="rgb(5.595398%, 29.940796%, 69.374084%)" offset="0.0703125"/><stop stop-opacity="1" stop-color="rgb(5.906677%, 29.992676%, 69.46106%)" offset="0.0742188"/><stop stop-opacity="1" stop-color="rgb(6.217957%, 30.046082%, 69.549561%)" offset="0.078125"/><stop stop-opacity="1" stop-color="rgb(6.529236%, 30.097961%, 69.636536%)" offset="0.0820312"/><stop stop-opacity="1" stop-color="rgb(6.840515%, 30.151367%, 69.723511%)" offset="0.0859375"/><stop stop-opacity="1" stop-color="rgb(7.150269%, 30.203247%, 69.810486%)" offset="0.0898438"/><stop stop-opacity="1" stop-color="rgb(7.461548%, 30.255127%, 69.898987%)" offset="0.09375"/><stop stop-opacity="1" stop-color="rgb(7.772827%, 30.307007%, 69.985962%)" offset="0.0976562"/><stop stop-opacity="1" stop-color="rgb(8.084106%, 30.360413%, 70.074463%)" offset="0.101562"/><stop stop-opacity="1" stop-color="rgb(8.39386%, 30.412292%, 70.161438%)" offset="0.105469"/><stop stop-opacity="1" stop-color="rgb(8.705139%, 30.464172%, 70.249939%)" offset="0.109375"/><stop stop-opacity="1" stop-color="rgb(9.016418%, 30.516052%, 70.336914%)" offset="0.113281"/><stop stop-opacity="1" stop-color="rgb(9.327698%, 30.569458%, 70.423889%)" offset="0.117188"/><stop stop-opacity="1" stop-color="rgb(9.637451%, 30.621338%, 70.510864%)" offset="0.121094"/><stop stop-opacity="1" stop-color="rgb(9.94873%, 30.674744%, 70.599365%)" offset="0.125"/><stop stop-opacity="1" stop-color="rgb(10.26001%, 30.726624%, 70.68634%)" offset="0.128906"/><stop stop-opacity="1" stop-color="rgb(10.571289%, 30.778503%, 70.774841%)" offset="0.132812"/><stop stop-opacity="1" stop-color="rgb(10.881042%, 30.830383%, 70.861816%)" offset="0.136719"/><stop stop-opacity="1" stop-color="rgb(11.192322%, 30.883789%, 70.948792%)" offset="0.140625"/><stop stop-opacity="1" stop-color="rgb(11.503601%, 30.935669%, 71.035767%)" offset="0.144531"/><stop stop-opacity="1" stop-color="rgb(11.81488%, 30.987549%, 71.124268%)" offset="0.148438"/><stop stop-opacity="1" stop-color="rgb(12.12616%, 31.039429%, 71.211243%)" offset="0.152344"/><stop stop-opacity="1" stop-color="rgb(12.437439%, 31.092834%, 71.299744%)" offset="0.15625"/><stop stop-opacity="1" stop-color="rgb(12.747192%, 31.144714%, 71.386719%)" offset="0.160156"/><stop stop-opacity="1" stop-color="rgb(13.058472%, 31.19812%, 71.473694%)" offset="0.164062"/><stop stop-opacity="1" stop-color="rgb(13.369751%, 31.25%, 71.560669%)" offset="0.167969"/><stop stop-opacity="1" stop-color="rgb(13.68103%, 31.30188%, 71.64917%)" offset="0.171875"/><stop stop-opacity="1" stop-color="rgb(13.990784%, 31.35376%, 71.736145%)" offset="0.175781"/><stop stop-opacity="1" stop-color="rgb(14.302063%, 31.407166%, 71.824646%)" offset="0.179688"/><stop stop-opacity="1" stop-color="rgb(14.613342%, 31.459045%, 71.911621%)" offset="0.183594"/><stop stop-opacity="1" stop-color="rgb(14.924622%, 31.512451%, 71.998596%)" offset="0.1875"/><stop stop-opacity="1" stop-color="rgb(15.234375%, 31.564331%, 72.085571%)" offset="0.191406"/><stop stop-opacity="1" stop-color="rgb(15.545654%, 31.616211%, 72.174072%)" offset="0.195312"/><stop stop-opacity="1" stop-color="rgb(15.856934%, 31.668091%, 72.261047%)" offset="0.199219"/><stop stop-opacity="1" stop-color="rgb(16.168213%, 31.721497%, 72.349548%)" offset="0.203125"/><stop stop-opacity="1" stop-color="rgb(16.477966%, 31.773376%, 72.436523%)" offset="0.207031"/><stop stop-opacity="1" stop-color="rgb(16.789246%, 31.825256%, 72.523499%)" offset="0.210938"/><stop stop-opacity="1" stop-color="rgb(17.100525%, 31.877136%, 72.610474%)" offset="0.214844"/><stop stop-opacity="1" stop-color="rgb(17.411804%, 31.930542%, 72.698975%)" offset="0.21875"/><stop stop-opacity="1" stop-color="rgb(17.723083%, 31.982422%, 72.78595%)" offset="0.222656"/><stop stop-opacity="1" stop-color="rgb(18.034363%, 32.035828%, 72.874451%)" offset="0.226562"/><stop stop-opacity="1" stop-color="rgb(18.344116%, 32.087708%, 72.961426%)" offset="0.230469"/><stop stop-opacity="1" stop-color="rgb(18.655396%, 32.139587%, 73.049927%)" offset="0.234375"/><stop stop-opacity="1" stop-color="rgb(18.966675%, 32.191467%, 73.136902%)" offset="0.238281"/><stop stop-opacity="1" stop-color="rgb(19.277954%, 32.244873%, 73.223877%)" offset="0.242188"/><stop stop-opacity="1" stop-color="rgb(19.587708%, 32.296753%, 73.310852%)" offset="0.246094"/><stop stop-opacity="1" stop-color="rgb(19.898987%, 32.348633%, 73.399353%)" offset="0.25"/><stop stop-opacity="1" stop-color="rgb(20.210266%, 32.400513%, 73.486328%)" offset="0.253906"/><stop stop-opacity="1" stop-color="rgb(20.521545%, 32.453918%, 73.574829%)" offset="0.257812"/><stop stop-opacity="1" stop-color="rgb(20.831299%, 32.505798%, 73.661804%)" offset="0.261719"/><stop stop-opacity="1" stop-color="rgb(21.142578%, 32.559204%, 73.748779%)" offset="0.265625"/><stop stop-opacity="1" stop-color="rgb(21.453857%, 32.611084%, 73.835754%)" offset="0.269531"/><stop stop-opacity="1" stop-color="rgb(21.765137%, 32.662964%, 73.924255%)" offset="0.273438"/><stop stop-opacity="1" stop-color="rgb(22.07489%, 32.714844%, 74.01123%)" offset="0.277344"/><stop stop-opacity="1" stop-color="rgb(22.386169%, 32.76825%, 74.099731%)" offset="0.28125"/><stop stop-opacity="1" stop-color="rgb(22.697449%, 32.820129%, 74.186707%)" offset="0.285156"/><stop stop-opacity="1" stop-color="rgb(23.008728%, 32.872009%, 74.273682%)" offset="0.289062"/><stop stop-opacity="1" stop-color="rgb(23.318481%, 32.923889%, 74.360657%)" offset="0.292969"/><stop stop-opacity="1" stop-color="rgb(23.629761%, 32.977295%, 74.449158%)" offset="0.296875"/><stop stop-opacity="1" stop-color="rgb(23.94104%, 33.029175%, 74.536133%)" offset="0.300781"/><stop stop-opacity="1" stop-color="rgb(24.252319%, 33.082581%, 74.624634%)" offset="0.304688"/><stop stop-opacity="1" stop-color="rgb(24.563599%, 33.13446%, 74.711609%)" offset="0.308594"/><stop stop-opacity="1" stop-color="rgb(24.874878%, 33.18634%, 74.798584%)" offset="0.3125"/><stop stop-opacity="1" stop-color="rgb(25.184631%, 33.23822%, 74.885559%)" offset="0.316406"/><stop stop-opacity="1" stop-color="rgb(25.495911%, 33.291626%, 74.97406%)" offset="0.320312"/><stop stop-opacity="1" stop-color="rgb(25.80719%, 33.343506%, 75.061035%)" offset="0.324219"/><stop stop-opacity="1" stop-color="rgb(26.118469%, 33.395386%, 75.149536%)" offset="0.328125"/><stop stop-opacity="1" stop-color="rgb(26.428223%, 33.447266%, 75.236511%)" offset="0.332031"/><stop stop-opacity="1" stop-color="rgb(26.739502%, 33.500671%, 75.323486%)" offset="0.335938"/><stop stop-opacity="1" stop-color="rgb(27.050781%, 33.552551%, 75.410461%)" offset="0.339844"/><stop stop-opacity="1" stop-color="rgb(27.362061%, 33.605957%, 75.498962%)" offset="0.34375"/><stop stop-opacity="1" stop-color="rgb(27.671814%, 33.657837%, 75.585938%)" offset="0.347656"/><stop stop-opacity="1" stop-color="rgb(27.983093%, 33.709717%, 75.674438%)" offset="0.351562"/><stop stop-opacity="1" stop-color="rgb(28.294373%, 33.761597%, 75.761414%)" offset="0.355469"/><stop stop-opacity="1" stop-color="rgb(28.605652%, 33.815002%, 75.849915%)" offset="0.359375"/><stop stop-opacity="1" stop-color="rgb(28.915405%, 33.866882%, 75.93689%)" offset="0.363281"/><stop stop-opacity="1" stop-color="rgb(29.226685%, 33.920288%, 76.023865%)" offset="0.367188"/><stop stop-opacity="1" stop-color="rgb(29.537964%, 33.972168%, 76.11084%)" offset="0.371094"/><stop stop-opacity="1" stop-color="rgb(29.849243%, 34.024048%, 76.199341%)" offset="0.375"/><stop stop-opacity="1" stop-color="rgb(30.160522%, 34.075928%, 76.286316%)" offset="0.378906"/><stop stop-opacity="1" stop-color="rgb(30.471802%, 34.129333%, 76.374817%)" offset="0.382812"/><stop stop-opacity="1" stop-color="rgb(30.781555%, 34.181213%, 76.461792%)" offset="0.386719"/><stop stop-opacity="1" stop-color="rgb(31.092834%, 34.233093%, 76.548767%)" offset="0.390625"/><stop stop-opacity="1" stop-color="rgb(31.404114%, 34.284973%, 76.635742%)" offset="0.394531"/><stop stop-opacity="1" stop-color="rgb(31.715393%, 34.338379%, 76.724243%)" offset="0.398438"/><stop stop-opacity="1" stop-color="rgb(32.025146%, 34.390259%, 76.811218%)" offset="0.402344"/><stop stop-opacity="1" stop-color="rgb(32.336426%, 34.443665%, 76.899719%)" offset="0.40625"/><stop stop-opacity="1" stop-color="rgb(32.647705%, 34.495544%, 76.986694%)" offset="0.410156"/><stop stop-opacity="1" stop-color="rgb(32.958984%, 34.547424%, 77.073669%)" offset="0.414062"/><stop stop-opacity="1" stop-color="rgb(33.268738%, 34.599304%, 77.160645%)" offset="0.417969"/><stop stop-opacity="1" stop-color="rgb(33.580017%, 34.65271%, 77.249146%)" offset="0.421875"/><stop stop-opacity="1" stop-color="rgb(33.891296%, 34.70459%, 77.336121%)" offset="0.425781"/><stop stop-opacity="1" stop-color="rgb(34.202576%, 34.75647%, 77.424622%)" offset="0.429688"/><stop stop-opacity="1" stop-color="rgb(34.512329%, 34.80835%, 77.511597%)" offset="0.433594"/><stop stop-opacity="1" stop-color="rgb(34.823608%, 34.861755%, 77.598572%)" offset="0.4375"/><stop stop-opacity="1" stop-color="rgb(35.134888%, 34.913635%, 77.685547%)" offset="0.441406"/><stop stop-opacity="1" stop-color="rgb(35.446167%, 34.967041%, 77.774048%)" offset="0.445312"/><stop stop-opacity="1" stop-color="rgb(35.757446%, 35.018921%, 77.861023%)" offset="0.449219"/><stop stop-opacity="1" stop-color="rgb(36.068726%, 35.070801%, 77.949524%)" offset="0.453125"/><stop stop-opacity="1" stop-color="rgb(36.378479%, 35.122681%, 78.036499%)" offset="0.457031"/><stop stop-opacity="1" stop-color="rgb(36.689758%, 35.176086%, 78.125%)" offset="0.460938"/><stop stop-opacity="1" stop-color="rgb(37.001038%, 35.227966%, 78.211975%)" offset="0.464844"/><stop stop-opacity="1" stop-color="rgb(37.312317%, 35.279846%, 78.29895%)" offset="0.46875"/><stop stop-opacity="1" stop-color="rgb(37.62207%, 35.331726%, 78.385925%)" offset="0.472656"/><stop stop-opacity="1" stop-color="rgb(37.93335%, 35.385132%, 78.474426%)" offset="0.476562"/><stop stop-opacity="1" stop-color="rgb(38.244629%, 35.437012%, 78.561401%)" offset="0.480469"/><stop stop-opacity="1" stop-color="rgb(38.555908%, 35.490417%, 78.649902%)" offset="0.484375"/><stop stop-opacity="1" stop-color="rgb(38.865662%, 35.542297%, 78.736877%)" offset="0.488281"/><stop stop-opacity="1" stop-color="rgb(39.176941%, 35.594177%, 78.823853%)" offset="0.492188"/><stop stop-opacity="1" stop-color="rgb(39.48822%, 35.646057%, 78.910828%)" offset="0.496094"/><stop stop-opacity="1" stop-color="rgb(39.7995%, 35.699463%, 78.999329%)" offset="0.5"/><stop stop-opacity="1" stop-color="rgb(40.109253%, 35.751343%, 79.086304%)" offset="0.503906"/><stop stop-opacity="1" stop-color="rgb(40.420532%, 35.803223%, 79.174805%)" offset="0.507812"/><stop stop-opacity="1" stop-color="rgb(40.731812%, 35.855103%, 79.26178%)" offset="0.511719"/><stop stop-opacity="1" stop-color="rgb(41.043091%, 35.908508%, 79.348755%)" offset="0.515625"/><stop stop-opacity="1" stop-color="rgb(41.352844%, 35.960388%, 79.43573%)" offset="0.519531"/><stop stop-opacity="1" stop-color="rgb(41.664124%, 36.013794%, 79.524231%)" offset="0.523438"/><stop stop-opacity="1" stop-color="rgb(41.975403%, 36.065674%, 79.611206%)" offset="0.527344"/><stop stop-opacity="1" stop-color="rgb(42.286682%, 36.117554%, 79.699707%)" offset="0.53125"/><stop stop-opacity="1" stop-color="rgb(42.597961%, 36.169434%, 79.786682%)" offset="0.535156"/><stop stop-opacity="1" stop-color="rgb(42.909241%, 36.222839%, 79.873657%)" offset="0.539062"/><stop stop-opacity="1" stop-color="rgb(43.218994%, 36.274719%, 79.960632%)" offset="0.542969"/><stop stop-opacity="1" stop-color="rgb(43.530273%, 36.328125%, 80.049133%)" offset="0.546875"/><stop stop-opacity="1" stop-color="rgb(43.841553%, 36.380005%, 80.136108%)" offset="0.550781"/><stop stop-opacity="1" stop-color="rgb(44.152832%, 36.431885%, 80.224609%)" offset="0.554688"/><stop stop-opacity="1" stop-color="rgb(44.462585%, 36.483765%, 80.311584%)" offset="0.558594"/><stop stop-opacity="1" stop-color="rgb(44.773865%, 36.53717%, 80.39856%)" offset="0.5625"/><stop stop-opacity="1" stop-color="rgb(45.085144%, 36.58905%, 80.485535%)" offset="0.566406"/><stop stop-opacity="1" stop-color="rgb(45.396423%, 36.64093%, 80.574036%)" offset="0.570312"/><stop stop-opacity="1" stop-color="rgb(45.706177%, 36.69281%, 80.661011%)" offset="0.574219"/><stop stop-opacity="1" stop-color="rgb(46.017456%, 36.746216%, 80.749512%)" offset="0.578125"/><stop stop-opacity="1" stop-color="rgb(46.328735%, 36.798096%, 80.836487%)" offset="0.582031"/><stop stop-opacity="1" stop-color="rgb(46.640015%, 36.851501%, 80.924988%)" offset="0.585938"/><stop stop-opacity="1" stop-color="rgb(46.949768%, 36.903381%, 81.011963%)" offset="0.589844"/><stop stop-opacity="1" stop-color="rgb(47.261047%, 36.955261%, 81.098938%)" offset="0.59375"/><stop stop-opacity="1" stop-color="rgb(47.572327%, 37.007141%, 81.185913%)" offset="0.597656"/><stop stop-opacity="1" stop-color="rgb(47.883606%, 37.060547%, 81.274414%)" offset="0.601562"/><stop stop-opacity="1" stop-color="rgb(48.194885%, 37.112427%, 81.361389%)" offset="0.605469"/><stop stop-opacity="1" stop-color="rgb(48.506165%, 37.164307%, 81.44989%)" offset="0.609375"/><stop stop-opacity="1" stop-color="rgb(48.815918%, 37.216187%, 81.536865%)" offset="0.613281"/><stop stop-opacity="1" stop-color="rgb(49.127197%, 37.269592%, 81.62384%)" offset="0.617188"/><stop stop-opacity="1" stop-color="rgb(49.438477%, 37.321472%, 81.710815%)" offset="0.621094"/><stop stop-opacity="1" stop-color="rgb(49.749756%, 37.374878%, 81.799316%)" offset="0.625"/><stop stop-opacity="1" stop-color="rgb(50.059509%, 37.426758%, 81.886292%)" offset="0.628906"/><stop stop-opacity="1" stop-color="rgb(50.370789%, 37.478638%, 81.974792%)" offset="0.632812"/><stop stop-opacity="1" stop-color="rgb(50.682068%, 37.530518%, 82.061768%)" offset="0.636719"/><stop stop-opacity="1" stop-color="rgb(50.993347%, 37.583923%, 82.148743%)" offset="0.640625"/><stop stop-opacity="1" stop-color="rgb(51.303101%, 37.635803%, 82.235718%)" offset="0.644531"/><stop stop-opacity="1" stop-color="rgb(51.61438%, 37.687683%, 82.324219%)" offset="0.648438"/><stop stop-opacity="1" stop-color="rgb(51.925659%, 37.739563%, 82.411194%)" offset="0.652344"/><stop stop-opacity="1" stop-color="rgb(52.236938%, 37.792969%, 82.499695%)" offset="0.65625"/><stop stop-opacity="1" stop-color="rgb(52.546692%, 37.844849%, 82.58667%)" offset="0.660156"/><stop stop-opacity="1" stop-color="rgb(52.857971%, 37.898254%, 82.673645%)" offset="0.664062"/><stop stop-opacity="1" stop-color="rgb(53.16925%, 37.950134%, 82.76062%)" offset="0.667969"/><stop stop-opacity="1" stop-color="rgb(53.48053%, 38.002014%, 82.849121%)" offset="0.671875"/><stop stop-opacity="1" stop-color="rgb(53.791809%, 38.053894%, 82.936096%)" offset="0.675781"/><stop stop-opacity="1" stop-color="rgb(54.103088%, 38.1073%, 83.024597%)" offset="0.679688"/><stop stop-opacity="1" stop-color="rgb(54.412842%, 38.15918%, 83.111572%)" offset="0.683594"/><stop stop-opacity="1" stop-color="rgb(54.724121%, 38.21106%, 83.198547%)" offset="0.6875"/><stop stop-opacity="1" stop-color="rgb(55.0354%, 38.262939%, 83.285522%)" offset="0.691406"/><stop stop-opacity="1" stop-color="rgb(55.34668%, 38.316345%, 83.374023%)" offset="0.695312"/><stop stop-opacity="1" stop-color="rgb(55.656433%, 38.368225%, 83.460999%)" offset="0.699219"/><stop stop-opacity="1" stop-color="rgb(55.967712%, 38.421631%, 83.5495%)" offset="0.703125"/><stop stop-opacity="1" stop-color="rgb(56.278992%, 38.473511%, 83.636475%)" offset="0.707031"/><stop stop-opacity="1" stop-color="rgb(56.590271%, 38.525391%, 83.724976%)" offset="0.710938"/><stop stop-opacity="1" stop-color="rgb(56.900024%, 38.577271%, 83.811951%)" offset="0.714844"/><stop stop-opacity="1" stop-color="rgb(57.211304%, 38.630676%, 83.898926%)" offset="0.71875"/><stop stop-opacity="1" stop-color="rgb(57.522583%, 38.682556%, 83.985901%)" offset="0.722656"/><stop stop-opacity="1" stop-color="rgb(57.833862%, 38.734436%, 84.074402%)" offset="0.726562"/><stop stop-opacity="1" stop-color="rgb(58.143616%, 38.786316%, 84.161377%)" offset="0.730469"/><stop stop-opacity="1" stop-color="rgb(58.454895%, 38.839722%, 84.249878%)" offset="0.734375"/><stop stop-opacity="1" stop-color="rgb(58.766174%, 38.891602%, 84.336853%)" offset="0.738281"/><stop stop-opacity="1" stop-color="rgb(59.077454%, 38.945007%, 84.423828%)" offset="0.742188"/><stop stop-opacity="1" stop-color="rgb(59.387207%, 38.996887%, 84.510803%)" offset="0.746094"/><stop stop-opacity="1" stop-color="rgb(59.698486%, 39.048767%, 84.599304%)" offset="0.75"/><stop stop-opacity="1" stop-color="rgb(60.009766%, 39.100647%, 84.686279%)" offset="0.753906"/><stop stop-opacity="1" stop-color="rgb(60.321045%, 39.154053%, 84.77478%)" offset="0.757812"/><stop stop-opacity="1" stop-color="rgb(60.632324%, 39.205933%, 84.861755%)" offset="0.761719"/><stop stop-opacity="1" stop-color="rgb(60.943604%, 39.259338%, 84.94873%)" offset="0.765625"/><stop stop-opacity="1" stop-color="rgb(61.253357%, 39.311218%, 85.035706%)" offset="0.769531"/><stop stop-opacity="1" stop-color="rgb(61.564636%, 39.363098%, 85.124207%)" offset="0.773438"/><stop stop-opacity="1" stop-color="rgb(61.875916%, 39.414978%, 85.211182%)" offset="0.777344"/><stop stop-opacity="1" stop-color="rgb(62.187195%, 39.468384%, 85.299683%)" offset="0.78125"/><stop stop-opacity="1" stop-color="rgb(62.496948%, 39.520264%, 85.386658%)" offset="0.785156"/><stop stop-opacity="1" stop-color="rgb(62.808228%, 39.572144%, 85.473633%)" offset="0.789062"/><stop stop-opacity="1" stop-color="rgb(63.119507%, 39.624023%, 85.560608%)" offset="0.792969"/><stop stop-opacity="1" stop-color="rgb(63.430786%, 39.677429%, 85.649109%)" offset="0.796875"/><stop stop-opacity="1" stop-color="rgb(63.74054%, 39.729309%, 85.736084%)" offset="0.800781"/><stop stop-opacity="1" stop-color="rgb(64.051819%, 39.782715%, 85.824585%)" offset="0.804688"/><stop stop-opacity="1" stop-color="rgb(64.363098%, 39.834595%, 85.91156%)" offset="0.808594"/><stop stop-opacity="1" stop-color="rgb(64.674377%, 39.886475%, 85.998535%)" offset="0.8125"/><stop stop-opacity="1" stop-color="rgb(64.984131%, 39.938354%, 86.08551%)" offset="0.816406"/><stop stop-opacity="1" stop-color="rgb(65.29541%, 39.99176%, 86.174011%)" offset="0.820312"/><stop stop-opacity="1" stop-color="rgb(65.606689%, 40.04364%, 86.260986%)" offset="0.824219"/><stop stop-opacity="1" stop-color="rgb(65.917969%, 40.09552%, 86.349487%)" offset="0.828125"/><stop stop-opacity="1" stop-color="rgb(66.229248%, 40.1474%, 86.436462%)" offset="0.832031"/><stop stop-opacity="1" stop-color="rgb(66.540527%, 40.200806%, 86.524963%)" offset="0.835938"/><stop stop-opacity="1" stop-color="rgb(66.850281%, 40.252686%, 86.611938%)" offset="0.839844"/><stop stop-opacity="1" stop-color="rgb(67.16156%, 40.306091%, 86.698914%)" offset="0.84375"/><stop stop-opacity="1" stop-color="rgb(67.472839%, 40.357971%, 86.785889%)" offset="0.847656"/><stop stop-opacity="1" stop-color="rgb(67.784119%, 40.409851%, 86.87439%)" offset="0.851562"/><stop stop-opacity="1" stop-color="rgb(68.093872%, 40.461731%, 86.961365%)" offset="0.855469"/><stop stop-opacity="1" stop-color="rgb(68.405151%, 40.515137%, 87.049866%)" offset="0.859375"/><stop stop-opacity="1" stop-color="rgb(68.716431%, 40.567017%, 87.136841%)" offset="0.863281"/><stop stop-opacity="1" stop-color="rgb(69.02771%, 40.618896%, 87.223816%)" offset="0.867188"/><stop stop-opacity="1" stop-color="rgb(69.337463%, 40.670776%, 87.310791%)" offset="0.871094"/><stop stop-opacity="1" stop-color="rgb(69.648743%, 40.724182%, 87.399292%)" offset="0.875"/><stop stop-opacity="1" stop-color="rgb(69.960022%, 40.776062%, 87.486267%)" offset="0.878906"/><stop stop-opacity="1" stop-color="rgb(70.271301%, 40.829468%, 87.574768%)" offset="0.882812"/><stop stop-opacity="1" stop-color="rgb(70.581055%, 40.881348%, 87.661743%)" offset="0.886719"/><stop stop-opacity="1" stop-color="rgb(70.892334%, 40.933228%, 87.748718%)" offset="0.890625"/><stop stop-opacity="1" stop-color="rgb(71.203613%, 40.985107%, 87.835693%)" offset="0.894531"/><stop stop-opacity="1" stop-color="rgb(71.514893%, 41.038513%, 87.924194%)" offset="0.898438"/><stop stop-opacity="1" stop-color="rgb(71.826172%, 41.090393%, 88.011169%)" offset="0.902344"/><stop stop-opacity="1" stop-color="rgb(72.137451%, 41.142273%, 88.09967%)" offset="0.90625"/><stop stop-opacity="1" stop-color="rgb(72.447205%, 41.194153%, 88.186646%)" offset="0.910156"/><stop stop-opacity="1" stop-color="rgb(72.758484%, 41.247559%, 88.273621%)" offset="0.914062"/><stop stop-opacity="1" stop-color="rgb(73.069763%, 41.299438%, 88.360596%)" offset="0.917969"/><stop stop-opacity="1" stop-color="rgb(73.381042%, 41.352844%, 88.449097%)" offset="0.921875"/><stop stop-opacity="1" stop-color="rgb(73.690796%, 41.404724%, 88.536072%)" offset="0.925781"/><stop stop-opacity="1" stop-color="rgb(74.002075%, 41.456604%, 88.624573%)" offset="0.929688"/><stop stop-opacity="1" stop-color="rgb(74.313354%, 41.508484%, 88.711548%)" offset="0.933594"/><stop stop-opacity="1" stop-color="rgb(74.624634%, 41.56189%, 88.798523%)" offset="0.9375"/><stop stop-opacity="1" stop-color="rgb(74.934387%, 41.61377%, 88.885498%)" offset="0.941406"/><stop stop-opacity="1" stop-color="rgb(75.245667%, 41.667175%, 88.973999%)" offset="0.945312"/><stop stop-opacity="1" stop-color="rgb(75.556946%, 41.719055%, 89.060974%)" offset="0.949219"/><stop stop-opacity="1" stop-color="rgb(75.868225%, 41.770935%, 89.149475%)" offset="0.953125"/><stop stop-opacity="1" stop-color="rgb(76.177979%, 41.822815%, 89.23645%)" offset="0.957031"/><stop stop-opacity="1" stop-color="rgb(76.489258%, 41.876221%, 89.324951%)" offset="0.960938"/><stop stop-opacity="1" stop-color="rgb(76.800537%, 41.928101%, 89.411926%)" offset="0.964844"/><stop stop-opacity="1" stop-color="rgb(77.111816%, 41.97998%, 89.498901%)" offset="0.96875"/><stop stop-opacity="1" stop-color="rgb(77.423096%, 42.03186%, 89.585876%)" offset="0.972656"/><stop stop-opacity="1" stop-color="rgb(77.734375%, 42.085266%, 89.674377%)" offset="0.976562"/><stop stop-opacity="1" stop-color="rgb(78.044128%, 42.137146%, 89.761353%)" offset="0.980469"/><stop stop-opacity="1" stop-color="rgb(78.355408%, 42.190552%, 89.849854%)" offset="0.984375"/><stop stop-opacity="1" stop-color="rgb(78.666687%, 42.242432%, 89.936829%)" offset="0.988281"/><stop stop-opacity="1" stop-color="rgb(78.977966%, 42.294312%, 90.023804%)" offset="0.992188"/><stop stop-opacity="1" stop-color="rgb(79.28772%, 42.346191%, 90.110779%)" offset="0.996094"/><stop stop-opacity="1" stop-color="rgb(79.598999%, 42.399597%, 90.19928%)" offset="1"/></linearGradient><clipPath id="1b449a811c"><rect x="0" width="496" y="0" height="166"/></clipPath><clipPath id="9b1ae51027"><path d="M 57.648438 43.386719 L 137.011719 43.386719 L 137.011719 139.96875 L 57.648438 139.96875 Z M 57.648438 43.386719 " clip-rule="nonzero"/></clipPath></defs><g mask="url(#7c040ac886)"><g transform="matrix(1, 0, 0, 1, 5, 9)"><g clip-path="url(#1b449a811c)"><g clip-path="url(#632c6f07d4)"><g clip-path="url(#eee86707e0)"><path fill="url(#036110bc4b)" d="M 0.28125 0.617188 L 0.28125 164.980469 L 495.214844 164.980469 L 495.214844 0.617188 Z M 0.28125 0.617188 " fill-rule="nonzero"/></g></g></g></g></g><g clip-path="url(#9b1ae51027)"><path fill="#000000" d="M 97.328125 43.386719 L 57.648438 60.949219 L 57.648438 87.289062 C 57.648438 111.671875 74.558594 134.414062 97.328125 139.964844 C 120.101562 134.414062 137.011719 111.671875 137.011719 87.289062 L 137.011719 60.949219 Z M 97.328125 91.632812 L 128.191406 91.632812 C 125.855469 109.71875 113.753906 125.832031 97.328125 130.855469 L 97.328125 91.675781 L 66.46875 91.675781 L 66.46875 66.65625 L 97.328125 53 Z M 97.328125 91.632812 " fill-opacity="1" fill-rule="nonzero"/></g><g fill="#000000" fill-opacity="1"><g transform="translate(151.852658, 110.804536)"><g><path d="M 33 -34.515625 C 33 -33.828125 32.75 -33.144531 32.25 -32.46875 L 11.796875 -6.1875 L 28.96875 -6.1875 C 29.9375 -6.1875 30.722656 -5.90625 31.328125 -5.34375 C 31.941406 -4.789062 32.25 -4.050781 32.25 -3.125 C 32.25 -2.226562 31.9375 -1.484375 31.3125 -0.890625 C 30.6875 -0.296875 29.90625 0 28.96875 0 L 5.328125 0 C 4.398438 0 3.59375 -0.320312 2.90625 -0.96875 C 2.226562 -1.613281 1.890625 -2.347656 1.890625 -3.171875 C 1.890625 -3.859375 2.140625 -4.539062 2.640625 -5.21875 L 23.046875 -31.5 L 7.484375 -31.5 C 6.515625 -31.5 5.722656 -31.785156 5.109375 -32.359375 C 4.503906 -32.929688 4.203125 -33.6875 4.203125 -34.625 C 4.203125 -35.519531 4.515625 -36.253906 5.140625 -36.828125 C 5.765625 -37.398438 6.546875 -37.6875 7.484375 -37.6875 L 29.5 -37.6875 C 30.363281 -37.6875 31.160156 -37.378906 31.890625 -36.765625 C 32.628906 -36.160156 33 -35.410156 33 -34.515625 Z M 33 -34.515625 "/></g></g></g><g fill="#000000" fill-opacity="1"><g transform="translate(186.737599, 110.804536)"><g><path d="M 24.875 -28.8125 C 25.8125 -28.8125 26.582031 -28.492188 27.1875 -27.859375 C 27.800781 -27.234375 28.109375 -26.453125 28.109375 -25.515625 L 28.109375 -2.640625 C 28.109375 2.023438 26.847656 5.425781 24.328125 7.5625 C 21.816406 9.695312 18.460938 10.765625 14.265625 10.765625 C 13.046875 10.765625 11.796875 10.664062 10.515625 10.46875 C 9.242188 10.269531 8.21875 10.007812 7.4375 9.6875 C 5.675781 8.9375 4.796875 7.894531 4.796875 6.5625 C 4.796875 6.3125 4.847656 6.023438 4.953125 5.703125 C 5.171875 4.910156 5.539062 4.304688 6.0625 3.890625 C 6.582031 3.484375 7.144531 3.28125 7.75 3.28125 C 8.113281 3.28125 8.457031 3.335938 8.78125 3.453125 C 9.03125 3.554688 9.46875 3.734375 10.09375 3.984375 C 10.71875 4.234375 11.378906 4.4375 12.078125 4.59375 C 12.785156 4.757812 13.515625 4.84375 14.265625 4.84375 C 16.816406 4.84375 18.691406 4.296875 19.890625 3.203125 C 21.097656 2.109375 21.703125 0.234375 21.703125 -2.421875 L 21.703125 -2.96875 C 19.835938 -0.632812 16.925781 0.53125 12.96875 0.53125 C 11.101562 0.53125 9.453125 0.09375 8.015625 -0.78125 C 6.585938 -1.65625 5.476562 -2.875 4.6875 -4.4375 C 3.894531 -6 3.5 -7.785156 3.5 -9.796875 L 3.5 -25.515625 C 3.5 -26.453125 3.800781 -27.234375 4.40625 -27.859375 C 5.019531 -28.492188 5.796875 -28.8125 6.734375 -28.8125 C 7.660156 -28.8125 8.429688 -28.492188 9.046875 -27.859375 C 9.660156 -27.234375 9.96875 -26.453125 9.96875 -25.515625 L 9.96875 -11.734375 C 9.96875 -9.472656 10.457031 -7.847656 11.4375 -6.859375 C 12.425781 -5.878906 13.875 -5.390625 15.78125 -5.390625 C 17.644531 -5.390625 19.085938 -5.9375 20.109375 -7.03125 C 21.128906 -8.125 21.640625 -9.691406 21.640625 -11.734375 L 21.640625 -25.515625 C 21.640625 -26.453125 21.941406 -27.234375 22.546875 -27.859375 C 23.160156 -28.492188 23.9375 -28.8125 24.875 -28.8125 Z M 24.875 -28.8125 "/></g></g></g><g fill="#000000" fill-opacity="1"><g transform="translate(218.338615, 110.804536)"><g><path d="M 36.71875 -29.34375 C 40.269531 -29.34375 42.726562 -28.253906 44.09375 -26.078125 C 45.457031 -23.910156 46.140625 -20.90625 46.140625 -17.0625 L 46.140625 -3.28125 C 46.140625 -2.351562 45.832031 -1.570312 45.21875 -0.9375 C 44.613281 -0.3125 43.84375 0 42.90625 0 C 41.976562 0 41.207031 -0.3125 40.59375 -0.9375 C 39.988281 -1.570312 39.6875 -2.351562 39.6875 -3.28125 L 39.6875 -17.0625 C 39.6875 -19.039062 39.300781 -20.59375 38.53125 -21.71875 C 37.757812 -22.851562 36.398438 -23.421875 34.453125 -23.421875 C 32.441406 -23.421875 30.867188 -22.816406 29.734375 -21.609375 C 28.609375 -20.410156 28.046875 -18.894531 28.046875 -17.0625 L 28.046875 -3.28125 C 28.046875 -2.351562 27.738281 -1.570312 27.125 -0.9375 C 26.519531 -0.3125 25.753906 0 24.828125 0 C 23.890625 0 23.113281 -0.3125 22.5 -0.9375 C 21.894531 -1.570312 21.59375 -2.351562 21.59375 -3.28125 L 21.59375 -17.0625 C 21.59375 -19.039062 21.207031 -20.59375 20.4375 -21.71875 C 19.664062 -22.851562 18.3125 -23.421875 16.375 -23.421875 C 14.363281 -23.421875 12.789062 -22.816406 11.65625 -21.609375 C 10.53125 -20.410156 9.96875 -18.894531 9.96875 -17.0625 L 9.96875 -3.28125 C 9.96875 -2.351562 9.660156 -1.570312 9.046875 -0.9375 C 8.429688 -0.3125 7.660156 0 6.734375 0 C 5.796875 0 5.019531 -0.3125 4.40625 -0.9375 C 3.800781 -1.570312 3.5 -2.351562 3.5 -3.28125 L 3.5 -25.515625 C 3.5 -26.453125 3.800781 -27.234375 4.40625 -27.859375 C 5.019531 -28.492188 5.796875 -28.8125 6.734375 -28.8125 C 7.660156 -28.8125 8.429688 -28.492188 9.046875 -27.859375 C 9.660156 -27.234375 9.96875 -26.453125 9.96875 -25.515625 L 9.96875 -24.65625 C 10.9375 -25.945312 12.164062 -27.050781 13.65625 -27.96875 C 15.144531 -28.882812 16.800781 -29.34375 18.625 -29.34375 C 23.15625 -29.34375 26.046875 -27.367188 27.296875 -23.421875 C 28.117188 -24.929688 29.363281 -26.296875 31.03125 -27.515625 C 32.707031 -28.734375 34.601562 -29.34375 36.71875 -29.34375 Z M 36.71875 -29.34375 "/></g></g></g><g fill="#000000" fill-opacity="1"><g transform="translate(267.974285, 110.804536)"><g><path d="M 31.171875 -14.375 C 31.171875 -11.5 30.523438 -8.921875 29.234375 -6.640625 C 27.941406 -4.367188 26.171875 -2.601562 23.921875 -1.34375 C 21.679688 -0.09375 19.21875 0.53125 16.53125 0.53125 C 13.800781 0.53125 11.320312 -0.09375 9.09375 -1.34375 C 6.875 -2.601562 5.117188 -4.367188 3.828125 -6.640625 C 2.535156 -8.921875 1.890625 -11.5 1.890625 -14.375 C 1.890625 -17.25 2.535156 -19.820312 3.828125 -22.09375 C 5.117188 -24.375 6.875 -26.148438 9.09375 -27.421875 C 11.320312 -28.703125 13.800781 -29.34375 16.53125 -29.34375 C 19.21875 -29.34375 21.679688 -28.703125 23.921875 -27.421875 C 26.171875 -26.148438 27.941406 -24.375 29.234375 -22.09375 C 30.523438 -19.820312 31.171875 -17.25 31.171875 -14.375 Z M 24.71875 -14.375 C 24.71875 -16.132812 24.347656 -17.703125 23.609375 -19.078125 C 22.867188 -20.460938 21.878906 -21.53125 20.640625 -22.28125 C 19.410156 -23.039062 18.039062 -23.421875 16.53125 -23.421875 C 15.019531 -23.421875 13.644531 -23.039062 12.40625 -22.28125 C 11.164062 -21.53125 10.175781 -20.460938 9.4375 -19.078125 C 8.707031 -17.703125 8.34375 -16.132812 8.34375 -14.375 C 8.34375 -12.613281 8.707031 -11.050781 9.4375 -9.6875 C 10.175781 -8.320312 11.164062 -7.265625 12.40625 -6.515625 C 13.644531 -5.765625 15.019531 -5.390625 16.53125 -5.390625 C 18.039062 -5.390625 19.410156 -5.765625 20.640625 -6.515625 C 21.878906 -7.265625 22.867188 -8.320312 23.609375 -9.6875 C 24.347656 -11.050781 24.71875 -12.613281 24.71875 -14.375 Z M 24.71875 -14.375 "/></g></g></g><g fill="#000000" fill-opacity="1"><g transform="translate(301.028837, 110.804536)"><g><path d="M 18.90625 -29.34375 C 22.5625 -29.34375 25.085938 -28.253906 26.484375 -26.078125 C 27.890625 -23.910156 28.59375 -20.90625 28.59375 -17.0625 L 28.59375 -3.28125 C 28.59375 -2.351562 28.285156 -1.570312 27.671875 -0.9375 C 27.066406 -0.3125 26.296875 0 25.359375 0 C 24.421875 0 23.644531 -0.3125 23.03125 -0.9375 C 22.425781 -1.570312 22.125 -2.351562 22.125 -3.28125 L 22.125 -17.0625 C 22.125 -19.039062 21.710938 -20.59375 20.890625 -21.71875 C 20.066406 -22.851562 18.648438 -23.421875 16.640625 -23.421875 C 14.554688 -23.421875 12.921875 -22.816406 11.734375 -21.609375 C 10.554688 -20.410156 9.96875 -18.894531 9.96875 -17.0625 L 9.96875 -3.28125 C 9.96875 -2.351562 9.660156 -1.570312 9.046875 -0.9375 C 8.429688 -0.3125 7.660156 0 6.734375 0 C 5.796875 0 5.019531 -0.3125 4.40625 -0.9375 C 3.800781 -1.570312 3.5 -2.351562 3.5 -3.28125 L 3.5 -25.515625 C 3.5 -26.453125 3.800781 -27.234375 4.40625 -27.859375 C 5.019531 -28.492188 5.796875 -28.8125 6.734375 -28.8125 C 7.660156 -28.8125 8.429688 -28.492188 9.046875 -27.859375 C 9.660156 -27.234375 9.96875 -26.453125 9.96875 -25.515625 L 9.96875 -24.609375 C 10.9375 -25.898438 12.195312 -27.007812 13.75 -27.9375 C 15.3125 -28.875 17.03125 -29.34375 18.90625 -29.34375 Z M 18.90625 -29.34375 "/></g></g></g><g fill="#000000" fill-opacity="1"><g transform="translate(333.114365, 110.804536)"><g><path d="M 31.171875 -14.375 C 31.171875 -11.5 30.523438 -8.921875 29.234375 -6.640625 C 27.941406 -4.367188 26.171875 -2.601562 23.921875 -1.34375 C 21.679688 -0.09375 19.21875 0.53125 16.53125 0.53125 C 13.800781 0.53125 11.320312 -0.09375 9.09375 -1.34375 C 6.875 -2.601562 5.117188 -4.367188 3.828125 -6.640625 C 2.535156 -8.921875 1.890625 -11.5 1.890625 -14.375 C 1.890625 -17.25 2.535156 -19.820312 3.828125 -22.09375 C 5.117188 -24.375 6.875 -26.148438 9.09375 -27.421875 C 11.320312 -28.703125 13.800781 -29.34375 16.53125 -29.34375 C 19.21875 -29.34375 21.679688 -28.703125 23.921875 -27.421875 C 26.171875 -26.148438 27.941406 -24.375 29.234375 -22.09375 C 30.523438 -19.820312 31.171875 -17.25 31.171875 -14.375 Z M 24.71875 -14.375 C 24.71875 -16.132812 24.347656 -17.703125 23.609375 -19.078125 C 22.867188 -20.460938 21.878906 -21.53125 20.640625 -22.28125 C 19.410156 -23.039062 18.039062 -23.421875 16.53125 -23.421875 C 15.019531 -23.421875 13.644531 -23.039062 12.40625 -22.28125 C 11.164062 -21.53125 10.175781 -20.460938 9.4375 -19.078125 C 8.707031 -17.703125 8.34375 -16.132812 8.34375 -14.375 C 8.34375 -12.613281 8.707031 -11.050781 9.4375 -9.6875 C 10.175781 -8.320312 11.164062 -7.265625 12.40625 -6.515625 C 13.644531 -5.765625 15.019531 -5.390625 16.53125 -5.390625 C 18.039062 -5.390625 19.410156 -5.765625 20.640625 -6.515625 C 21.878906 -7.265625 22.867188 -8.320312 23.609375 -9.6875 C 24.347656 -11.050781 24.71875 -12.613281 24.71875 -14.375 Z M 24.71875 -14.375 "/></g></g></g><g fill="#000000" fill-opacity="1"><g transform="translate(366.168917, 110.804536)"><g><path d="M 33.59375 -4.203125 C 33.78125 -3.734375 33.875 -3.300781 33.875 -2.90625 C 33.875 -1.96875 33.566406 -1.203125 32.953125 -0.609375 C 32.335938 -0.0234375 31.640625 0.265625 30.859375 0.265625 C 30.210938 0.265625 29.628906 0.0664062 29.109375 -0.328125 C 28.585938 -0.722656 28.179688 -1.257812 27.890625 -1.9375 L 25.09375 -8.453125 L 9.046875 -8.453125 L 6.25 -1.890625 C 6 -1.203125 5.613281 -0.671875 5.09375 -0.296875 C 4.570312 0.078125 4.003906 0.265625 3.390625 0.265625 C 2.460938 0.265625 1.753906 0.015625 1.265625 -0.484375 C 0.773438 -0.984375 0.53125 -1.664062 0.53125 -2.53125 C 0.53125 -2.851562 0.585938 -3.191406 0.703125 -3.546875 L 14.109375 -35.75 C 14.390625 -36.46875 14.816406 -37.023438 15.390625 -37.421875 C 15.972656 -37.816406 16.625 -37.976562 17.34375 -37.90625 C 17.988281 -37.90625 18.585938 -37.71875 19.140625 -37.34375 C 19.691406 -36.96875 20.097656 -36.4375 20.359375 -35.75 Z M 11.6875 -14.640625 L 22.453125 -14.640625 L 17.015625 -27.25 Z M 11.6875 -14.640625 "/></g></g></g><g fill="#000000" fill-opacity="1"><g transform="translate(400.569347, 110.804536)"><g><path d="M 19.59375 -37.6875 C 21.425781 -37.6875 23.164062 -37.140625 24.8125 -36.046875 C 26.46875 -34.953125 27.796875 -33.476562 28.796875 -31.625 C 29.804688 -29.78125 30.3125 -27.765625 30.3125 -25.578125 C 30.3125 -23.421875 29.804688 -21.410156 28.796875 -19.546875 C 27.796875 -17.679688 26.46875 -16.195312 24.8125 -15.09375 C 23.164062 -14 21.425781 -13.453125 19.59375 -13.453125 L 10.234375 -13.453125 L 10.234375 -3.28125 C 10.234375 -2.3125 9.941406 -1.519531 9.359375 -0.90625 C 8.785156 -0.300781 8.035156 0 7.109375 0 C 6.210938 0 5.472656 -0.3125 4.890625 -0.9375 C 4.316406 -1.570312 4.03125 -2.351562 4.03125 -3.28125 L 4.03125 -34.40625 C 4.03125 -35.34375 4.34375 -36.125 4.96875 -36.75 C 5.601562 -37.375 6.390625 -37.6875 7.328125 -37.6875 Z M 19.59375 -19.59375 C 20.28125 -19.59375 20.953125 -19.878906 21.609375 -20.453125 C 22.273438 -21.035156 22.816406 -21.78125 23.234375 -22.6875 C 23.648438 -23.601562 23.859375 -24.566406 23.859375 -25.578125 C 23.859375 -26.578125 23.648438 -27.535156 23.234375 -28.453125 C 22.816406 -29.367188 22.273438 -30.101562 21.609375 -30.65625 C 20.953125 -31.21875 20.28125 -31.5 19.59375 -31.5 L 10.234375 -31.5 L 10.234375 -19.59375 Z M 19.59375 -19.59375 "/></g></g></g><g fill="#000000" fill-opacity="1"><g transform="translate(433.031728, 110.804536)"><g><path d="M 10.765625 -3.28125 C 10.765625 -2.351562 10.421875 -1.570312 9.734375 -0.9375 C 9.054688 -0.3125 8.269531 0 7.375 0 C 6.40625 0 5.601562 -0.3125 4.96875 -0.9375 C 4.34375 -1.570312 4.03125 -2.351562 4.03125 -3.28125 L 4.03125 -34.40625 C 4.03125 -35.34375 4.351562 -36.125 5 -36.75 C 5.65625 -37.375 6.484375 -37.6875 7.484375 -37.6875 C 8.378906 -37.6875 9.148438 -37.375 9.796875 -36.75 C 10.441406 -36.125 10.765625 -35.34375 10.765625 -34.40625 Z M 10.765625 -3.28125 "/></g></g></g></svg>