<svg xmlns="http://www.w3.org/2000/svg" xmlns:xlink="http://www.w3.org/1999/xlink" width="674" zoomAndPan="magnify" viewBox="0 0 505.5 181.5" height="242" preserveAspectRatio="xMidYMid meet" version="1.0"><defs><g/><clipPath id="8400f0bd16"><path d="M 0.445312 0 L 504.554688 0 L 504.554688 181 L 0.445312 181 Z M 0.445312 0 " clip-rule="nonzero"/></clipPath><linearGradient x1="0" gradientTransform="matrix(0.748679, 0, 0, 0.748679, 0.445056, 0)" y1="0" x2="673.334046" gradientUnits="userSpaceOnUse" y2="0" id="2745732441"><stop stop-opacity="1" stop-color="rgb(31.799316%, 43.899536%, 100%)" offset="0"/><stop stop-opacity="1" stop-color="rgb(32.064819%, 43.884277%, 99.908447%)" offset="0.00390625"/><stop stop-opacity="1" stop-color="rgb(32.331848%, 43.869019%, 99.81842%)" offset="0.0078125"/><stop stop-opacity="1" stop-color="rgb(32.597351%, 43.85376%, 99.728394%)" offset="0.0117188"/><stop stop-opacity="1" stop-color="rgb(32.86438%, 43.838501%, 99.638367%)" offset="0.015625"/><stop stop-opacity="1" stop-color="rgb(33.129883%, 43.823242%, 99.54834%)" offset="0.0195313"/><stop stop-opacity="1" stop-color="rgb(33.395386%, 43.807983%, 99.458313%)" offset="0.0234375"/><stop stop-opacity="1" stop-color="rgb(33.660889%, 43.792725%, 99.368286%)" offset="0.0273437"/><stop stop-opacity="1" stop-color="rgb(33.927917%, 43.777466%, 99.278259%)" offset="0.03125"/><stop stop-opacity="1" stop-color="rgb(34.19342%, 43.762207%, 99.188232%)" offset="0.0351562"/><stop stop-opacity="1" stop-color="rgb(34.460449%, 43.746948%, 99.098206%)" offset="0.0390625"/><stop stop-opacity="1" stop-color="rgb(34.725952%, 43.731689%, 99.008179%)" offset="0.0429688"/><stop stop-opacity="1" stop-color="rgb(34.992981%, 43.716431%, 98.918152%)" offset="0.046875"/><stop stop-opacity="1" stop-color="rgb(35.258484%, 43.701172%, 98.826599%)" offset="0.0507812"/><stop stop-opacity="1" stop-color="rgb(35.525513%, 43.685913%, 98.736572%)" offset="0.0546875"/><stop stop-opacity="1" stop-color="rgb(35.791016%, 43.670654%, 98.646545%)" offset="0.0585938"/><stop stop-opacity="1" stop-color="rgb(36.058044%, 43.655396%, 98.556519%)" offset="0.0625"/><stop stop-opacity="1" stop-color="rgb(36.323547%, 43.640137%, 98.466492%)" offset="0.0664062"/><stop stop-opacity="1" stop-color="rgb(36.58905%, 43.624878%, 98.376465%)" offset="0.0703125"/><stop stop-opacity="1" stop-color="rgb(36.854553%, 43.609619%, 98.286438%)" offset="0.0742188"/><stop stop-opacity="1" stop-color="rgb(37.121582%, 43.59436%, 98.196411%)" offset="0.078125"/><stop stop-opacity="1" stop-color="rgb(37.387085%, 43.579102%, 98.106384%)" offset="0.0820312"/><stop stop-opacity="1" stop-color="rgb(37.654114%, 43.563843%, 98.016357%)" offset="0.0859375"/><stop stop-opacity="1" stop-color="rgb(37.919617%, 43.548584%, 97.926331%)" offset="0.0898437"/><stop stop-opacity="1" stop-color="rgb(38.186646%, 43.533325%, 97.836304%)" offset="0.09375"/><stop stop-opacity="1" stop-color="rgb(38.452148%, 43.518066%, 97.744751%)" offset="0.0976563"/><stop stop-opacity="1" stop-color="rgb(38.719177%, 43.502808%, 97.654724%)" offset="0.101562"/><stop stop-opacity="1" stop-color="rgb(38.98468%, 43.487549%, 97.564697%)" offset="0.105469"/><stop stop-opacity="1" stop-color="rgb(39.251709%, 43.473816%, 97.47467%)" offset="0.109375"/><stop stop-opacity="1" stop-color="rgb(39.517212%, 43.458557%, 97.384644%)" offset="0.113281"/><stop stop-opacity="1" stop-color="rgb(39.784241%, 43.443298%, 97.294617%)" offset="0.117188"/><stop stop-opacity="1" stop-color="rgb(40.049744%, 43.42804%, 97.20459%)" offset="0.121094"/><stop stop-opacity="1" stop-color="rgb(40.315247%, 43.412781%, 97.114563%)" offset="0.125"/><stop stop-opacity="1" stop-color="rgb(40.58075%, 43.397522%, 97.024536%)" offset="0.128906"/><stop stop-opacity="1" stop-color="rgb(40.847778%, 43.382263%, 96.934509%)" offset="0.132812"/><stop stop-opacity="1" stop-color="rgb(41.113281%, 43.367004%, 96.844482%)" offset="0.136719"/><stop stop-opacity="1" stop-color="rgb(41.38031%, 43.351746%, 96.754456%)" offset="0.140625"/><stop stop-opacity="1" stop-color="rgb(41.645813%, 43.336487%, 96.664429%)" offset="0.144531"/><stop stop-opacity="1" stop-color="rgb(41.912842%, 43.321228%, 96.574402%)" offset="0.148438"/><stop stop-opacity="1" stop-color="rgb(42.178345%, 43.305969%, 96.482849%)" offset="0.152344"/><stop stop-opacity="1" stop-color="rgb(42.445374%, 43.29071%, 96.392822%)" offset="0.15625"/><stop stop-opacity="1" stop-color="rgb(42.710876%, 43.275452%, 96.302795%)" offset="0.160156"/><stop stop-opacity="1" stop-color="rgb(42.977905%, 43.260193%, 96.212769%)" offset="0.164062"/><stop stop-opacity="1" stop-color="rgb(43.243408%, 43.244934%, 96.122742%)" offset="0.167969"/><stop stop-opacity="1" stop-color="rgb(43.508911%, 43.229675%, 96.032715%)" offset="0.171875"/><stop stop-opacity="1" stop-color="rgb(43.774414%, 43.214417%, 95.942688%)" offset="0.175781"/><stop stop-opacity="1" stop-color="rgb(44.041443%, 43.199158%, 95.852661%)" offset="0.179687"/><stop stop-opacity="1" stop-color="rgb(44.306946%, 43.183899%, 95.762634%)" offset="0.183594"/><stop stop-opacity="1" stop-color="rgb(44.573975%, 43.16864%, 95.672607%)" offset="0.1875"/><stop stop-opacity="1" stop-color="rgb(44.839478%, 43.153381%, 95.582581%)" offset="0.191406"/><stop stop-opacity="1" stop-color="rgb(45.106506%, 43.138123%, 95.492554%)" offset="0.195313"/><stop stop-opacity="1" stop-color="rgb(45.372009%, 43.122864%, 95.401001%)" offset="0.199219"/><stop stop-opacity="1" stop-color="rgb(45.639038%, 43.107605%, 95.310974%)" offset="0.203125"/><stop stop-opacity="1" stop-color="rgb(45.904541%, 43.092346%, 95.220947%)" offset="0.207031"/><stop stop-opacity="1" stop-color="rgb(46.17157%, 43.077087%, 95.13092%)" offset="0.210938"/><stop stop-opacity="1" stop-color="rgb(46.437073%, 43.061829%, 95.040894%)" offset="0.214844"/><stop stop-opacity="1" stop-color="rgb(46.702576%, 43.04657%, 94.950867%)" offset="0.21875"/><stop stop-opacity="1" stop-color="rgb(46.968079%, 43.031311%, 94.86084%)" offset="0.222656"/><stop stop-opacity="1" stop-color="rgb(47.235107%, 43.016052%, 94.770813%)" offset="0.226562"/><stop stop-opacity="1" stop-color="rgb(47.50061%, 43.000793%, 94.680786%)" offset="0.230469"/><stop stop-opacity="1" stop-color="rgb(47.767639%, 42.985535%, 94.590759%)" offset="0.234375"/><stop stop-opacity="1" stop-color="rgb(48.033142%, 42.970276%, 94.500732%)" offset="0.238281"/><stop stop-opacity="1" stop-color="rgb(48.300171%, 42.955017%, 94.410706%)" offset="0.242188"/><stop stop-opacity="1" stop-color="rgb(48.565674%, 42.939758%, 94.320679%)" offset="0.246094"/><stop stop-opacity="1" stop-color="rgb(48.832703%, 42.9245%, 94.230652%)" offset="0.25"/><stop stop-opacity="1" stop-color="rgb(49.098206%, 42.909241%, 94.139099%)" offset="0.253906"/><stop stop-opacity="1" stop-color="rgb(49.365234%, 42.895508%, 94.049072%)" offset="0.257812"/><stop stop-opacity="1" stop-color="rgb(49.630737%, 42.880249%, 93.959045%)" offset="0.261719"/><stop stop-opacity="1" stop-color="rgb(49.89624%, 42.86499%, 93.869019%)" offset="0.265625"/><stop stop-opacity="1" stop-color="rgb(50.161743%, 42.849731%, 93.778992%)" offset="0.269531"/><stop stop-opacity="1" stop-color="rgb(50.428772%, 42.834473%, 93.688965%)" offset="0.273438"/><stop stop-opacity="1" stop-color="rgb(50.694275%, 42.819214%, 93.598938%)" offset="0.277344"/><stop stop-opacity="1" stop-color="rgb(50.961304%, 42.803955%, 93.508911%)" offset="0.28125"/><stop stop-opacity="1" stop-color="rgb(51.226807%, 42.788696%, 93.418884%)" offset="0.285156"/><stop stop-opacity="1" stop-color="rgb(51.493835%, 42.773438%, 93.328857%)" offset="0.289062"/><stop stop-opacity="1" stop-color="rgb(51.759338%, 42.758179%, 93.238831%)" offset="0.292969"/><stop stop-opacity="1" stop-color="rgb(52.026367%, 42.74292%, 93.148804%)" offset="0.296875"/><stop stop-opacity="1" stop-color="rgb(52.29187%, 42.727661%, 93.057251%)" offset="0.300781"/><stop stop-opacity="1" stop-color="rgb(52.558899%, 42.712402%, 92.967224%)" offset="0.304688"/><stop stop-opacity="1" stop-color="rgb(52.824402%, 42.697144%, 92.877197%)" offset="0.308594"/><stop stop-opacity="1" stop-color="rgb(53.091431%, 42.681885%, 92.78717%)" offset="0.3125"/><stop stop-opacity="1" stop-color="rgb(53.356934%, 42.666626%, 92.697144%)" offset="0.316406"/><stop stop-opacity="1" stop-color="rgb(53.622437%, 42.651367%, 92.607117%)" offset="0.320312"/><stop stop-opacity="1" stop-color="rgb(53.887939%, 42.636108%, 92.51709%)" offset="0.324219"/><stop stop-opacity="1" stop-color="rgb(54.154968%, 42.62085%, 92.427063%)" offset="0.328125"/><stop stop-opacity="1" stop-color="rgb(54.420471%, 42.605591%, 92.337036%)" offset="0.332031"/><stop stop-opacity="1" stop-color="rgb(54.6875%, 42.590332%, 92.247009%)" offset="0.335938"/><stop stop-opacity="1" stop-color="rgb(54.953003%, 42.575073%, 92.156982%)" offset="0.339844"/><stop stop-opacity="1" stop-color="rgb(55.220032%, 42.559814%, 92.066956%)" offset="0.34375"/><stop stop-opacity="1" stop-color="rgb(55.485535%, 42.544556%, 91.976929%)" offset="0.347656"/><stop stop-opacity="1" stop-color="rgb(55.752563%, 42.529297%, 91.886902%)" offset="0.351562"/><stop stop-opacity="1" stop-color="rgb(56.018066%, 42.514038%, 91.795349%)" offset="0.355469"/><stop stop-opacity="1" stop-color="rgb(56.285095%, 42.498779%, 91.705322%)" offset="0.359375"/><stop stop-opacity="1" stop-color="rgb(56.550598%, 42.483521%, 91.615295%)" offset="0.363281"/><stop stop-opacity="1" stop-color="rgb(56.816101%, 42.468262%, 91.525269%)" offset="0.367188"/><stop stop-opacity="1" stop-color="rgb(57.081604%, 42.453003%, 91.435242%)" offset="0.371094"/><stop stop-opacity="1" stop-color="rgb(57.348633%, 42.437744%, 91.345215%)" offset="0.375"/><stop stop-opacity="1" stop-color="rgb(57.614136%, 42.422485%, 91.255188%)" offset="0.378906"/><stop stop-opacity="1" stop-color="rgb(57.881165%, 42.407227%, 91.165161%)" offset="0.382812"/><stop stop-opacity="1" stop-color="rgb(58.146667%, 42.391968%, 91.075134%)" offset="0.386719"/><stop stop-opacity="1" stop-color="rgb(58.413696%, 42.376709%, 90.985107%)" offset="0.390625"/><stop stop-opacity="1" stop-color="rgb(58.679199%, 42.36145%, 90.895081%)" offset="0.394531"/><stop stop-opacity="1" stop-color="rgb(58.946228%, 42.346191%, 90.805054%)" offset="0.398438"/><stop stop-opacity="1" stop-color="rgb(59.211731%, 42.330933%, 90.713501%)" offset="0.402344"/><stop stop-opacity="1" stop-color="rgb(59.47876%, 42.315674%, 90.623474%)" offset="0.40625"/><stop stop-opacity="1" stop-color="rgb(59.744263%, 42.300415%, 90.533447%)" offset="0.410156"/><stop stop-opacity="1" stop-color="rgb(60.009766%, 42.286682%, 90.44342%)" offset="0.414062"/><stop stop-opacity="1" stop-color="rgb(60.275269%, 42.271423%, 90.353394%)" offset="0.417969"/><stop stop-opacity="1" stop-color="rgb(60.542297%, 42.256165%, 90.263367%)" offset="0.421875"/><stop stop-opacity="1" stop-color="rgb(60.8078%, 42.240906%, 90.17334%)" offset="0.425781"/><stop stop-opacity="1" stop-color="rgb(61.074829%, 42.225647%, 90.083313%)" offset="0.429688"/><stop stop-opacity="1" stop-color="rgb(61.340332%, 42.210388%, 89.993286%)" offset="0.433594"/><stop stop-opacity="1" stop-color="rgb(61.607361%, 42.195129%, 89.903259%)" offset="0.4375"/><stop stop-opacity="1" stop-color="rgb(61.872864%, 42.179871%, 89.813232%)" offset="0.441406"/><stop stop-opacity="1" stop-color="rgb(62.139893%, 42.164612%, 89.723206%)" offset="0.445312"/><stop stop-opacity="1" stop-color="rgb(62.405396%, 42.149353%, 89.633179%)" offset="0.449219"/><stop stop-opacity="1" stop-color="rgb(62.672424%, 42.134094%, 89.543152%)" offset="0.453125"/><stop stop-opacity="1" stop-color="rgb(62.937927%, 42.118835%, 89.451599%)" offset="0.457031"/><stop stop-opacity="1" stop-color="rgb(63.20343%, 42.103577%, 89.361572%)" offset="0.460938"/><stop stop-opacity="1" stop-color="rgb(63.468933%, 42.088318%, 89.271545%)" offset="0.464844"/><stop stop-opacity="1" stop-color="rgb(63.735962%, 42.073059%, 89.181519%)" offset="0.46875"/><stop stop-opacity="1" stop-color="rgb(64.001465%, 42.0578%, 89.091492%)" offset="0.472656"/><stop stop-opacity="1" stop-color="rgb(64.268494%, 42.042542%, 89.001465%)" offset="0.476562"/><stop stop-opacity="1" stop-color="rgb(64.533997%, 42.027283%, 88.911438%)" offset="0.480469"/><stop stop-opacity="1" stop-color="rgb(64.801025%, 42.012024%, 88.821411%)" offset="0.484375"/><stop stop-opacity="1" stop-color="rgb(65.066528%, 41.996765%, 88.731384%)" offset="0.488281"/><stop stop-opacity="1" stop-color="rgb(65.333557%, 41.981506%, 88.641357%)" offset="0.492188"/><stop stop-opacity="1" stop-color="rgb(65.59906%, 41.966248%, 88.551331%)" offset="0.496094"/><stop stop-opacity="1" stop-color="rgb(65.866089%, 41.950989%, 88.461304%)" offset="0.5"/><stop stop-opacity="1" stop-color="rgb(66.131592%, 41.93573%, 88.369751%)" offset="0.503906"/><stop stop-opacity="1" stop-color="rgb(66.397095%, 41.920471%, 88.279724%)" offset="0.507812"/><stop stop-opacity="1" stop-color="rgb(66.662598%, 41.905212%, 88.189697%)" offset="0.511719"/><stop stop-opacity="1" stop-color="rgb(66.929626%, 41.889954%, 88.09967%)" offset="0.515625"/><stop stop-opacity="1" stop-color="rgb(67.195129%, 41.874695%, 88.009644%)" offset="0.519531"/><stop stop-opacity="1" stop-color="rgb(67.462158%, 41.859436%, 87.919617%)" offset="0.523437"/><stop stop-opacity="1" stop-color="rgb(67.727661%, 41.844177%, 87.82959%)" offset="0.527344"/><stop stop-opacity="1" stop-color="rgb(67.99469%, 41.828918%, 87.739563%)" offset="0.53125"/><stop stop-opacity="1" stop-color="rgb(68.260193%, 41.81366%, 87.649536%)" offset="0.535156"/><stop stop-opacity="1" stop-color="rgb(68.527222%, 41.798401%, 87.559509%)" offset="0.539062"/><stop stop-opacity="1" stop-color="rgb(68.792725%, 41.783142%, 87.469482%)" offset="0.542969"/><stop stop-opacity="1" stop-color="rgb(69.059753%, 41.767883%, 87.379456%)" offset="0.546875"/><stop stop-opacity="1" stop-color="rgb(69.325256%, 41.752625%, 87.287903%)" offset="0.550781"/><stop stop-opacity="1" stop-color="rgb(69.592285%, 41.737366%, 87.197876%)" offset="0.554688"/><stop stop-opacity="1" stop-color="rgb(69.857788%, 41.722107%, 87.107849%)" offset="0.558594"/><stop stop-opacity="1" stop-color="rgb(70.123291%, 41.708374%, 87.017822%)" offset="0.5625"/><stop stop-opacity="1" stop-color="rgb(70.388794%, 41.693115%, 86.927795%)" offset="0.566406"/><stop stop-opacity="1" stop-color="rgb(70.655823%, 41.677856%, 86.837769%)" offset="0.570312"/><stop stop-opacity="1" stop-color="rgb(70.921326%, 41.662598%, 86.747742%)" offset="0.574219"/><stop stop-opacity="1" stop-color="rgb(71.188354%, 41.647339%, 86.657715%)" offset="0.578125"/><stop stop-opacity="1" stop-color="rgb(71.453857%, 41.63208%, 86.567688%)" offset="0.582031"/><stop stop-opacity="1" stop-color="rgb(71.720886%, 41.616821%, 86.477661%)" offset="0.585938"/><stop stop-opacity="1" stop-color="rgb(71.986389%, 41.601562%, 86.387634%)" offset="0.589844"/><stop stop-opacity="1" stop-color="rgb(72.253418%, 41.586304%, 86.297607%)" offset="0.59375"/><stop stop-opacity="1" stop-color="rgb(72.518921%, 41.571045%, 86.207581%)" offset="0.597656"/><stop stop-opacity="1" stop-color="rgb(72.78595%, 41.555786%, 86.117554%)" offset="0.601563"/><stop stop-opacity="1" stop-color="rgb(73.051453%, 41.540527%, 86.026001%)" offset="0.605469"/><stop stop-opacity="1" stop-color="rgb(73.316956%, 41.525269%, 85.935974%)" offset="0.609375"/><stop stop-opacity="1" stop-color="rgb(73.582458%, 41.51001%, 85.845947%)" offset="0.613281"/><stop stop-opacity="1" stop-color="rgb(73.849487%, 41.494751%, 85.75592%)" offset="0.617188"/><stop stop-opacity="1" stop-color="rgb(74.11499%, 41.479492%, 85.665894%)" offset="0.621094"/><stop stop-opacity="1" stop-color="rgb(74.382019%, 41.464233%, 85.575867%)" offset="0.625"/><stop stop-opacity="1" stop-color="rgb(74.647522%, 41.448975%, 85.48584%)" offset="0.628906"/><stop stop-opacity="1" stop-color="rgb(74.914551%, 41.433716%, 85.395813%)" offset="0.632813"/><stop stop-opacity="1" stop-color="rgb(75.180054%, 41.418457%, 85.305786%)" offset="0.636719"/><stop stop-opacity="1" stop-color="rgb(75.447083%, 41.403198%, 85.215759%)" offset="0.640625"/><stop stop-opacity="1" stop-color="rgb(75.712585%, 41.387939%, 85.125732%)" offset="0.644531"/><stop stop-opacity="1" stop-color="rgb(75.979614%, 41.372681%, 85.035706%)" offset="0.648438"/><stop stop-opacity="1" stop-color="rgb(76.245117%, 41.357422%, 84.944153%)" offset="0.652344"/><stop stop-opacity="1" stop-color="rgb(76.51062%, 41.342163%, 84.854126%)" offset="0.65625"/><stop stop-opacity="1" stop-color="rgb(76.776123%, 41.326904%, 84.764099%)" offset="0.660156"/><stop stop-opacity="1" stop-color="rgb(77.043152%, 41.311646%, 84.674072%)" offset="0.664063"/><stop stop-opacity="1" stop-color="rgb(77.308655%, 41.296387%, 84.584045%)" offset="0.667969"/><stop stop-opacity="1" stop-color="rgb(77.575684%, 41.281128%, 84.494019%)" offset="0.671875"/><stop stop-opacity="1" stop-color="rgb(77.841187%, 41.265869%, 84.403992%)" offset="0.675781"/><stop stop-opacity="1" stop-color="rgb(78.108215%, 41.25061%, 84.313965%)" offset="0.679687"/><stop stop-opacity="1" stop-color="rgb(78.373718%, 41.235352%, 84.223938%)" offset="0.683594"/><stop stop-opacity="1" stop-color="rgb(78.640747%, 41.220093%, 84.133911%)" offset="0.6875"/><stop stop-opacity="1" stop-color="rgb(78.90625%, 41.204834%, 84.043884%)" offset="0.691406"/><stop stop-opacity="1" stop-color="rgb(79.173279%, 41.189575%, 83.953857%)" offset="0.695312"/><stop stop-opacity="1" stop-color="rgb(79.438782%, 41.174316%, 83.863831%)" offset="0.699219"/><stop stop-opacity="1" stop-color="rgb(79.704285%, 41.159058%, 83.773804%)" offset="0.703125"/><stop stop-opacity="1" stop-color="rgb(79.969788%, 41.143799%, 83.682251%)" offset="0.707031"/><stop stop-opacity="1" stop-color="rgb(80.236816%, 41.130066%, 83.592224%)" offset="0.710937"/><stop stop-opacity="1" stop-color="rgb(80.502319%, 41.114807%, 83.502197%)" offset="0.714844"/><stop stop-opacity="1" stop-color="rgb(80.769348%, 41.099548%, 83.41217%)" offset="0.71875"/><stop stop-opacity="1" stop-color="rgb(81.034851%, 41.08429%, 83.322144%)" offset="0.722656"/><stop stop-opacity="1" stop-color="rgb(81.30188%, 41.069031%, 83.232117%)" offset="0.726562"/><stop stop-opacity="1" stop-color="rgb(81.567383%, 41.053772%, 83.14209%)" offset="0.730469"/><stop stop-opacity="1" stop-color="rgb(81.834412%, 41.038513%, 83.052063%)" offset="0.734375"/><stop stop-opacity="1" stop-color="rgb(82.099915%, 41.023254%, 82.962036%)" offset="0.738281"/><stop stop-opacity="1" stop-color="rgb(82.366943%, 41.007996%, 82.872009%)" offset="0.742188"/><stop stop-opacity="1" stop-color="rgb(82.632446%, 40.992737%, 82.781982%)" offset="0.746094"/><stop stop-opacity="1" stop-color="rgb(82.897949%, 40.977478%, 82.691956%)" offset="0.75"/><stop stop-opacity="1" stop-color="rgb(83.163452%, 40.962219%, 82.600403%)" offset="0.753906"/><stop stop-opacity="1" stop-color="rgb(83.430481%, 40.94696%, 82.510376%)" offset="0.757812"/><stop stop-opacity="1" stop-color="rgb(83.695984%, 40.931702%, 82.420349%)" offset="0.761719"/><stop stop-opacity="1" stop-color="rgb(83.963013%, 40.916443%, 82.330322%)" offset="0.765625"/><stop stop-opacity="1" stop-color="rgb(84.228516%, 40.901184%, 82.240295%)" offset="0.769531"/><stop stop-opacity="1" stop-color="rgb(84.495544%, 40.885925%, 82.150269%)" offset="0.773438"/><stop stop-opacity="1" stop-color="rgb(84.761047%, 40.870667%, 82.060242%)" offset="0.777344"/><stop stop-opacity="1" stop-color="rgb(85.028076%, 40.855408%, 81.970215%)" offset="0.78125"/><stop stop-opacity="1" stop-color="rgb(85.293579%, 40.840149%, 81.880188%)" offset="0.785156"/><stop stop-opacity="1" stop-color="rgb(85.560608%, 40.82489%, 81.790161%)" offset="0.789063"/><stop stop-opacity="1" stop-color="rgb(85.826111%, 40.809631%, 81.700134%)" offset="0.792969"/><stop stop-opacity="1" stop-color="rgb(86.09314%, 40.794373%, 81.610107%)" offset="0.796875"/><stop stop-opacity="1" stop-color="rgb(86.358643%, 40.779114%, 81.520081%)" offset="0.800781"/><stop stop-opacity="1" stop-color="rgb(86.624146%, 40.763855%, 81.430054%)" offset="0.804688"/><stop stop-opacity="1" stop-color="rgb(86.889648%, 40.748596%, 81.338501%)" offset="0.808594"/><stop stop-opacity="1" stop-color="rgb(87.156677%, 40.733337%, 81.248474%)" offset="0.8125"/><stop stop-opacity="1" stop-color="rgb(87.42218%, 40.718079%, 81.158447%)" offset="0.816406"/><stop stop-opacity="1" stop-color="rgb(87.689209%, 40.70282%, 81.06842%)" offset="0.820313"/><stop stop-opacity="1" stop-color="rgb(87.954712%, 40.687561%, 80.978394%)" offset="0.824219"/><stop stop-opacity="1" stop-color="rgb(88.221741%, 40.672302%, 80.888367%)" offset="0.828125"/><stop stop-opacity="1" stop-color="rgb(88.487244%, 40.657043%, 80.79834%)" offset="0.832031"/><stop stop-opacity="1" stop-color="rgb(88.754272%, 40.641785%, 80.708313%)" offset="0.835937"/><stop stop-opacity="1" stop-color="rgb(89.019775%, 40.626526%, 80.618286%)" offset="0.839844"/><stop stop-opacity="1" stop-color="rgb(89.286804%, 40.611267%, 80.528259%)" offset="0.84375"/><stop stop-opacity="1" stop-color="rgb(89.552307%, 40.596008%, 80.438232%)" offset="0.847656"/><stop stop-opacity="1" stop-color="rgb(89.81781%, 40.58075%, 80.348206%)" offset="0.851562"/><stop stop-opacity="1" stop-color="rgb(90.083313%, 40.565491%, 80.256653%)" offset="0.855469"/><stop stop-opacity="1" stop-color="rgb(90.350342%, 40.550232%, 80.166626%)" offset="0.859375"/><stop stop-opacity="1" stop-color="rgb(90.615845%, 40.534973%, 80.076599%)" offset="0.863281"/><stop stop-opacity="1" stop-color="rgb(90.882874%, 40.52124%, 79.986572%)" offset="0.867187"/><stop stop-opacity="1" stop-color="rgb(91.148376%, 40.505981%, 79.896545%)" offset="0.871094"/><stop stop-opacity="1" stop-color="rgb(91.415405%, 40.490723%, 79.806519%)" offset="0.875"/><stop stop-opacity="1" stop-color="rgb(91.680908%, 40.475464%, 79.716492%)" offset="0.878906"/><stop stop-opacity="1" stop-color="rgb(91.947937%, 40.460205%, 79.626465%)" offset="0.882812"/><stop stop-opacity="1" stop-color="rgb(92.21344%, 40.444946%, 79.536438%)" offset="0.886719"/><stop stop-opacity="1" stop-color="rgb(92.480469%, 40.429688%, 79.446411%)" offset="0.890625"/><stop stop-opacity="1" stop-color="rgb(92.745972%, 40.414429%, 79.356384%)" offset="0.894531"/><stop stop-opacity="1" stop-color="rgb(93.011475%, 40.39917%, 79.266357%)" offset="0.898437"/><stop stop-opacity="1" stop-color="rgb(93.276978%, 40.383911%, 79.176331%)" offset="0.902344"/><stop stop-opacity="1" stop-color="rgb(93.544006%, 40.368652%, 79.086304%)" offset="0.90625"/><stop stop-opacity="1" stop-color="rgb(93.809509%, 40.353394%, 78.994751%)" offset="0.910156"/><stop stop-opacity="1" stop-color="rgb(94.076538%, 40.338135%, 78.904724%)" offset="0.914062"/><stop stop-opacity="1" stop-color="rgb(94.342041%, 40.322876%, 78.814697%)" offset="0.917969"/><stop stop-opacity="1" stop-color="rgb(94.60907%, 40.307617%, 78.72467%)" offset="0.921875"/><stop stop-opacity="1" stop-color="rgb(94.874573%, 40.292358%, 78.634644%)" offset="0.925781"/><stop stop-opacity="1" stop-color="rgb(95.141602%, 40.2771%, 78.544617%)" offset="0.929688"/><stop stop-opacity="1" stop-color="rgb(95.407104%, 40.261841%, 78.45459%)" offset="0.933594"/><stop stop-opacity="1" stop-color="rgb(95.674133%, 40.246582%, 78.364563%)" offset="0.9375"/><stop stop-opacity="1" stop-color="rgb(95.939636%, 40.231323%, 78.274536%)" offset="0.941406"/><stop stop-opacity="1" stop-color="rgb(96.205139%, 40.216064%, 78.184509%)" offset="0.945312"/><stop stop-opacity="1" stop-color="rgb(96.470642%, 40.200806%, 78.094482%)" offset="0.949219"/><stop stop-opacity="1" stop-color="rgb(96.737671%, 40.185547%, 78.004456%)" offset="0.953125"/><stop stop-opacity="1" stop-color="rgb(97.003174%, 40.170288%, 77.912903%)" offset="0.957031"/><stop stop-opacity="1" stop-color="rgb(97.270203%, 40.155029%, 77.822876%)" offset="0.960938"/><stop stop-opacity="1" stop-color="rgb(97.535706%, 40.139771%, 77.732849%)" offset="0.964844"/><stop stop-opacity="1" stop-color="rgb(97.802734%, 40.124512%, 77.642822%)" offset="0.96875"/><stop stop-opacity="1" stop-color="rgb(98.068237%, 40.109253%, 77.552795%)" offset="0.972656"/><stop stop-opacity="1" stop-color="rgb(98.335266%, 40.093994%, 77.462769%)" offset="0.976563"/><stop stop-opacity="1" stop-color="rgb(98.600769%, 40.078735%, 77.372742%)" offset="0.980469"/><stop stop-opacity="1" stop-color="rgb(98.867798%, 40.063477%, 77.282715%)" offset="0.984375"/><stop stop-opacity="1" stop-color="rgb(99.133301%, 40.048218%, 77.192688%)" offset="0.988281"/><stop stop-opacity="1" stop-color="rgb(99.398804%, 40.032959%, 77.102661%)" offset="0.992188"/><stop stop-opacity="1" stop-color="rgb(99.664307%, 40.0177%, 77.012634%)" offset="0.996094"/><stop stop-opacity="1" stop-color="rgb(99.931335%, 40.002441%, 76.922607%)" offset="1"/></linearGradient><clipPath id="5305592f93"><path d="M 43.039062 22.296875 L 154.589844 22.296875 L 154.589844 158.554688 L 43.039062 158.554688 Z M 43.039062 22.296875 " clip-rule="nonzero"/></clipPath></defs><g clip-path="url(#8400f0bd16)"><path fill="#ffffff" d="M 0.445312 0 L 505.054688 0 L 505.054688 187.917969 L 0.445312 187.917969 Z M 0.445312 0 " fill-opacity="1" fill-rule="nonzero"/><path fill="#ffffff" d="M 0.445312 0 L 505.054688 0 L 505.054688 181.179688 L 0.445312 181.179688 Z M 0.445312 0 " fill-opacity="1" fill-rule="nonzero"/><path fill="url(#2745732441)" d="M 0.445312 0 L 0.445312 181 L 504.554688 181 L 504.554688 0 Z M 0.445312 0 " fill-rule="nonzero"/></g><g clip-path="url(#5305592f93)"><path fill="#000000" d="M 98.816406 22.296875 L 43.039062 47.070312 L 43.039062 84.230469 C 43.039062 118.636719 66.804688 150.71875 98.816406 158.554688 C 130.824219 150.71875 154.589844 118.636719 154.589844 84.230469 L 154.589844 47.070312 Z M 98.816406 90.363281 L 142.195312 90.363281 C 138.914062 115.882812 121.902344 138.609375 98.816406 145.703125 L 98.816406 90.425781 L 55.433594 90.425781 L 55.433594 55.121094 L 98.816406 35.859375 Z M 98.816406 90.363281 " fill-opacity="1" fill-rule="nonzero"/></g><g fill="#000000" fill-opacity="1"><g transform="translate(166.464021, 110.804536)"><g><path d="M 33 -34.515625 C 33 -33.828125 32.75 -33.144531 32.25 -32.46875 L 11.796875 -6.1875 L 28.96875 -6.1875 C 29.9375 -6.1875 30.722656 -5.90625 31.328125 -5.34375 C 31.941406 -4.789062 32.25 -4.050781 32.25 -3.125 C 32.25 -2.226562 31.9375 -1.484375 31.3125 -0.890625 C 30.6875 -0.296875 29.90625 0 28.96875 0 L 5.328125 0 C 4.398438 0 3.59375 -0.320312 2.90625 -0.96875 C 2.226562 -1.613281 1.890625 -2.347656 1.890625 -3.171875 C 1.890625 -3.859375 2.140625 -4.539062 2.640625 -5.21875 L 23.046875 -31.5 L 7.484375 -31.5 C 6.515625 -31.5 5.722656 -31.785156 5.109375 -32.359375 C 4.503906 -32.929688 4.203125 -33.6875 4.203125 -34.625 C 4.203125 -35.519531 4.515625 -36.253906 5.140625 -36.828125 C 5.765625 -37.398438 6.546875 -37.6875 7.484375 -37.6875 L 29.5 -37.6875 C 30.363281 -37.6875 31.160156 -37.378906 31.890625 -36.765625 C 32.628906 -36.160156 33 -35.410156 33 -34.515625 Z M 33 -34.515625 "/></g></g></g><g fill="#000000" fill-opacity="1"><g transform="translate(201.348963, 110.804536)"><g><path d="M 24.875 -28.8125 C 25.8125 -28.8125 26.582031 -28.492188 27.1875 -27.859375 C 27.800781 -27.234375 28.109375 -26.453125 28.109375 -25.515625 L 28.109375 -2.640625 C 28.109375 2.023438 26.847656 5.425781 24.328125 7.5625 C 21.816406 9.695312 18.460938 10.765625 14.265625 10.765625 C 13.046875 10.765625 11.796875 10.664062 10.515625 10.46875 C 9.242188 10.269531 8.21875 10.007812 7.4375 9.6875 C 5.675781 8.9375 4.796875 7.894531 4.796875 6.5625 C 4.796875 6.3125 4.847656 6.023438 4.953125 5.703125 C 5.171875 4.910156 5.539062 4.304688 6.0625 3.890625 C 6.582031 3.484375 7.144531 3.28125 7.75 3.28125 C 8.113281 3.28125 8.457031 3.335938 8.78125 3.453125 C 9.03125 3.554688 9.46875 3.734375 10.09375 3.984375 C 10.71875 4.234375 11.378906 4.4375 12.078125 4.59375 C 12.785156 4.757812 13.515625 4.84375 14.265625 4.84375 C 16.816406 4.84375 18.691406 4.296875 19.890625 3.203125 C 21.097656 2.109375 21.703125 0.234375 21.703125 -2.421875 L 21.703125 -2.96875 C 19.835938 -0.632812 16.925781 0.53125 12.96875 0.53125 C 11.101562 0.53125 9.453125 0.09375 8.015625 -0.78125 C 6.585938 -1.65625 5.476562 -2.875 4.6875 -4.4375 C 3.894531 -6 3.5 -7.785156 3.5 -9.796875 L 3.5 -25.515625 C 3.5 -26.453125 3.800781 -27.234375 4.40625 -27.859375 C 5.019531 -28.492188 5.796875 -28.8125 6.734375 -28.8125 C 7.660156 -28.8125 8.429688 -28.492188 9.046875 -27.859375 C 9.660156 -27.234375 9.96875 -26.453125 9.96875 -25.515625 L 9.96875 -11.734375 C 9.96875 -9.472656 10.457031 -7.847656 11.4375 -6.859375 C 12.425781 -5.878906 13.875 -5.390625 15.78125 -5.390625 C 17.644531 -5.390625 19.085938 -5.9375 20.109375 -7.03125 C 21.128906 -8.125 21.640625 -9.691406 21.640625 -11.734375 L 21.640625 -25.515625 C 21.640625 -26.453125 21.941406 -27.234375 22.546875 -27.859375 C 23.160156 -28.492188 23.9375 -28.8125 24.875 -28.8125 Z M 24.875 -28.8125 "/></g></g></g><g fill="#000000" fill-opacity="1"><g transform="translate(232.949979, 110.804536)"><g><path d="M 36.71875 -29.34375 C 40.269531 -29.34375 42.726562 -28.253906 44.09375 -26.078125 C 45.457031 -23.910156 46.140625 -20.90625 46.140625 -17.0625 L 46.140625 -3.28125 C 46.140625 -2.351562 45.832031 -1.570312 45.21875 -0.9375 C 44.613281 -0.3125 43.84375 0 42.90625 0 C 41.976562 0 41.207031 -0.3125 40.59375 -0.9375 C 39.988281 -1.570312 39.6875 -2.351562 39.6875 -3.28125 L 39.6875 -17.0625 C 39.6875 -19.039062 39.300781 -20.59375 38.53125 -21.71875 C 37.757812 -22.851562 36.398438 -23.421875 34.453125 -23.421875 C 32.441406 -23.421875 30.867188 -22.816406 29.734375 -21.609375 C 28.609375 -20.410156 28.046875 -18.894531 28.046875 -17.0625 L 28.046875 -3.28125 C 28.046875 -2.351562 27.738281 -1.570312 27.125 -0.9375 C 26.519531 -0.3125 25.753906 0 24.828125 0 C 23.890625 0 23.113281 -0.3125 22.5 -0.9375 C 21.894531 -1.570312 21.59375 -2.351562 21.59375 -3.28125 L 21.59375 -17.0625 C 21.59375 -19.039062 21.207031 -20.59375 20.4375 -21.71875 C 19.664062 -22.851562 18.3125 -23.421875 16.375 -23.421875 C 14.363281 -23.421875 12.789062 -22.816406 11.65625 -21.609375 C 10.53125 -20.410156 9.96875 -18.894531 9.96875 -17.0625 L 9.96875 -3.28125 C 9.96875 -2.351562 9.660156 -1.570312 9.046875 -0.9375 C 8.429688 -0.3125 7.660156 0 6.734375 0 C 5.796875 0 5.019531 -0.3125 4.40625 -0.9375 C 3.800781 -1.570312 3.5 -2.351562 3.5 -3.28125 L 3.5 -25.515625 C 3.5 -26.453125 3.800781 -27.234375 4.40625 -27.859375 C 5.019531 -28.492188 5.796875 -28.8125 6.734375 -28.8125 C 7.660156 -28.8125 8.429688 -28.492188 9.046875 -27.859375 C 9.660156 -27.234375 9.96875 -26.453125 9.96875 -25.515625 L 9.96875 -24.65625 C 10.9375 -25.945312 12.164062 -27.050781 13.65625 -27.96875 C 15.144531 -28.882812 16.800781 -29.34375 18.625 -29.34375 C 23.15625 -29.34375 26.046875 -27.367188 27.296875 -23.421875 C 28.117188 -24.929688 29.363281 -26.296875 31.03125 -27.515625 C 32.707031 -28.734375 34.601562 -29.34375 36.71875 -29.34375 Z M 36.71875 -29.34375 "/></g></g></g><g fill="#000000" fill-opacity="1"><g transform="translate(282.585648, 110.804536)"><g><path d="M 31.171875 -14.375 C 31.171875 -11.5 30.523438 -8.921875 29.234375 -6.640625 C 27.941406 -4.367188 26.171875 -2.601562 23.921875 -1.34375 C 21.679688 -0.09375 19.21875 0.53125 16.53125 0.53125 C 13.800781 0.53125 11.320312 -0.09375 9.09375 -1.34375 C 6.875 -2.601562 5.117188 -4.367188 3.828125 -6.640625 C 2.535156 -8.921875 1.890625 -11.5 1.890625 -14.375 C 1.890625 -17.25 2.535156 -19.820312 3.828125 -22.09375 C 5.117188 -24.375 6.875 -26.148438 9.09375 -27.421875 C 11.320312 -28.703125 13.800781 -29.34375 16.53125 -29.34375 C 19.21875 -29.34375 21.679688 -28.703125 23.921875 -27.421875 C 26.171875 -26.148438 27.941406 -24.375 29.234375 -22.09375 C 30.523438 -19.820312 31.171875 -17.25 31.171875 -14.375 Z M 24.71875 -14.375 C 24.71875 -16.132812 24.347656 -17.703125 23.609375 -19.078125 C 22.867188 -20.460938 21.878906 -21.53125 20.640625 -22.28125 C 19.410156 -23.039062 18.039062 -23.421875 16.53125 -23.421875 C 15.019531 -23.421875 13.644531 -23.039062 12.40625 -22.28125 C 11.164062 -21.53125 10.175781 -20.460938 9.4375 -19.078125 C 8.707031 -17.703125 8.34375 -16.132812 8.34375 -14.375 C 8.34375 -12.613281 8.707031 -11.050781 9.4375 -9.6875 C 10.175781 -8.320312 11.164062 -7.265625 12.40625 -6.515625 C 13.644531 -5.765625 15.019531 -5.390625 16.53125 -5.390625 C 18.039062 -5.390625 19.410156 -5.765625 20.640625 -6.515625 C 21.878906 -7.265625 22.867188 -8.320312 23.609375 -9.6875 C 24.347656 -11.050781 24.71875 -12.613281 24.71875 -14.375 Z M 24.71875 -14.375 "/></g></g></g><g fill="#000000" fill-opacity="1"><g transform="translate(315.6402, 110.804536)"><g><path d="M 18.90625 -29.34375 C 22.5625 -29.34375 25.085938 -28.253906 26.484375 -26.078125 C 27.890625 -23.910156 28.59375 -20.90625 28.59375 -17.0625 L 28.59375 -3.28125 C 28.59375 -2.351562 28.285156 -1.570312 27.671875 -0.9375 C 27.066406 -0.3125 26.296875 0 25.359375 0 C 24.421875 0 23.644531 -0.3125 23.03125 -0.9375 C 22.425781 -1.570312 22.125 -2.351562 22.125 -3.28125 L 22.125 -17.0625 C 22.125 -19.039062 21.710938 -20.59375 20.890625 -21.71875 C 20.066406 -22.851562 18.648438 -23.421875 16.640625 -23.421875 C 14.554688 -23.421875 12.921875 -22.816406 11.734375 -21.609375 C 10.554688 -20.410156 9.96875 -18.894531 9.96875 -17.0625 L 9.96875 -3.28125 C 9.96875 -2.351562 9.660156 -1.570312 9.046875 -0.9375 C 8.429688 -0.3125 7.660156 0 6.734375 0 C 5.796875 0 5.019531 -0.3125 4.40625 -0.9375 C 3.800781 -1.570312 3.5 -2.351562 3.5 -3.28125 L 3.5 -25.515625 C 3.5 -26.453125 3.800781 -27.234375 4.40625 -27.859375 C 5.019531 -28.492188 5.796875 -28.8125 6.734375 -28.8125 C 7.660156 -28.8125 8.429688 -28.492188 9.046875 -27.859375 C 9.660156 -27.234375 9.96875 -26.453125 9.96875 -25.515625 L 9.96875 -24.609375 C 10.9375 -25.898438 12.195312 -27.007812 13.75 -27.9375 C 15.3125 -28.875 17.03125 -29.34375 18.90625 -29.34375 Z M 18.90625 -29.34375 "/></g></g></g><g fill="#000000" fill-opacity="1"><g transform="translate(347.725729, 110.804536)"><g><path d="M 31.171875 -14.375 C 31.171875 -11.5 30.523438 -8.921875 29.234375 -6.640625 C 27.941406 -4.367188 26.171875 -2.601562 23.921875 -1.34375 C 21.679688 -0.09375 19.21875 0.53125 16.53125 0.53125 C 13.800781 0.53125 11.320312 -0.09375 9.09375 -1.34375 C 6.875 -2.601562 5.117188 -4.367188 3.828125 -6.640625 C 2.535156 -8.921875 1.890625 -11.5 1.890625 -14.375 C 1.890625 -17.25 2.535156 -19.820312 3.828125 -22.09375 C 5.117188 -24.375 6.875 -26.148438 9.09375 -27.421875 C 11.320312 -28.703125 13.800781 -29.34375 16.53125 -29.34375 C 19.21875 -29.34375 21.679688 -28.703125 23.921875 -27.421875 C 26.171875 -26.148438 27.941406 -24.375 29.234375 -22.09375 C 30.523438 -19.820312 31.171875 -17.25 31.171875 -14.375 Z M 24.71875 -14.375 C 24.71875 -16.132812 24.347656 -17.703125 23.609375 -19.078125 C 22.867188 -20.460938 21.878906 -21.53125 20.640625 -22.28125 C 19.410156 -23.039062 18.039062 -23.421875 16.53125 -23.421875 C 15.019531 -23.421875 13.644531 -23.039062 12.40625 -22.28125 C 11.164062 -21.53125 10.175781 -20.460938 9.4375 -19.078125 C 8.707031 -17.703125 8.34375 -16.132812 8.34375 -14.375 C 8.34375 -12.613281 8.707031 -11.050781 9.4375 -9.6875 C 10.175781 -8.320312 11.164062 -7.265625 12.40625 -6.515625 C 13.644531 -5.765625 15.019531 -5.390625 16.53125 -5.390625 C 18.039062 -5.390625 19.410156 -5.765625 20.640625 -6.515625 C 21.878906 -7.265625 22.867188 -8.320312 23.609375 -9.6875 C 24.347656 -11.050781 24.71875 -12.613281 24.71875 -14.375 Z M 24.71875 -14.375 "/></g></g></g><g fill="#000000" fill-opacity="1"><g transform="translate(380.780281, 110.804536)"><g><path d="M 33.59375 -4.203125 C 33.78125 -3.734375 33.875 -3.300781 33.875 -2.90625 C 33.875 -1.96875 33.566406 -1.203125 32.953125 -0.609375 C 32.335938 -0.0234375 31.640625 0.265625 30.859375 0.265625 C 30.210938 0.265625 29.628906 0.0664062 29.109375 -0.328125 C 28.585938 -0.722656 28.179688 -1.257812 27.890625 -1.9375 L 25.09375 -8.453125 L 9.046875 -8.453125 L 6.25 -1.890625 C 6 -1.203125 5.613281 -0.671875 5.09375 -0.296875 C 4.570312 0.078125 4.003906 0.265625 3.390625 0.265625 C 2.460938 0.265625 1.753906 0.015625 1.265625 -0.484375 C 0.773438 -0.984375 0.53125 -1.664062 0.53125 -2.53125 C 0.53125 -2.851562 0.585938 -3.191406 0.703125 -3.546875 L 14.109375 -35.75 C 14.390625 -36.46875 14.816406 -37.023438 15.390625 -37.421875 C 15.972656 -37.816406 16.625 -37.976562 17.34375 -37.90625 C 17.988281 -37.90625 18.585938 -37.71875 19.140625 -37.34375 C 19.691406 -36.96875 20.097656 -36.4375 20.359375 -35.75 Z M 11.6875 -14.640625 L 22.453125 -14.640625 L 17.015625 -27.25 Z M 11.6875 -14.640625 "/></g></g></g><g fill="#000000" fill-opacity="1"><g transform="translate(415.180711, 110.804536)"><g><path d="M 19.59375 -37.6875 C 21.425781 -37.6875 23.164062 -37.140625 24.8125 -36.046875 C 26.46875 -34.953125 27.796875 -33.476562 28.796875 -31.625 C 29.804688 -29.78125 30.3125 -27.765625 30.3125 -25.578125 C 30.3125 -23.421875 29.804688 -21.410156 28.796875 -19.546875 C 27.796875 -17.679688 26.46875 -16.195312 24.8125 -15.09375 C 23.164062 -14 21.425781 -13.453125 19.59375 -13.453125 L 10.234375 -13.453125 L 10.234375 -3.28125 C 10.234375 -2.3125 9.941406 -1.519531 9.359375 -0.90625 C 8.785156 -0.300781 8.035156 0 7.109375 0 C 6.210938 0 5.472656 -0.3125 4.890625 -0.9375 C 4.316406 -1.570312 4.03125 -2.351562 4.03125 -3.28125 L 4.03125 -34.40625 C 4.03125 -35.34375 4.34375 -36.125 4.96875 -36.75 C 5.601562 -37.375 6.390625 -37.6875 7.328125 -37.6875 Z M 19.59375 -19.59375 C 20.28125 -19.59375 20.953125 -19.878906 21.609375 -20.453125 C 22.273438 -21.035156 22.816406 -21.78125 23.234375 -22.6875 C 23.648438 -23.601562 23.859375 -24.566406 23.859375 -25.578125 C 23.859375 -26.578125 23.648438 -27.535156 23.234375 -28.453125 C 22.816406 -29.367188 22.273438 -30.101562 21.609375 -30.65625 C 20.953125 -31.21875 20.28125 -31.5 19.59375 -31.5 L 10.234375 -31.5 L 10.234375 -19.59375 Z M 19.59375 -19.59375 "/></g></g></g><g fill="#000000" fill-opacity="1"><g transform="translate(447.643092, 110.804536)"><g><path d="M 10.765625 -3.28125 C 10.765625 -2.351562 10.421875 -1.570312 9.734375 -0.9375 C 9.054688 -0.3125 8.269531 0 7.375 0 C 6.40625 0 5.601562 -0.3125 4.96875 -0.9375 C 4.34375 -1.570312 4.03125 -2.351562 4.03125 -3.28125 L 4.03125 -34.40625 C 4.03125 -35.34375 4.351562 -36.125 5 -36.75 C 5.65625 -37.375 6.484375 -37.6875 7.484375 -37.6875 C 8.378906 -37.6875 9.148438 -37.375 9.796875 -36.75 C 10.441406 -36.125 10.765625 -35.34375 10.765625 -34.40625 Z M 10.765625 -3.28125 "/></g></g></g></svg>